%TF.GenerationSoftware,KiCad,Pcbnew,9.0.7*%
%TF.CreationDate,2026-03-03T09:08:29+08:00*%
%TF.ProjectId,stc89c52rc_led_5_3_matrix_perfboard,73746338-3963-4353-9272-635f6c65645f,rev?*%
%TF.SameCoordinates,Original*%
%TF.FileFunction,Legend,Top*%
%TF.FilePolarity,Positive*%
%FSLAX46Y46*%
G04 Gerber Fmt 4.6, Leading zero omitted, Abs format (unit mm)*
G04 Created by KiCad (PCBNEW 9.0.7) date 2026-03-03 09:08:29*
%MOMM*%
%LPD*%
G01*
G04 APERTURE LIST*
%ADD10C,0.150000*%
%ADD11C,0.120000*%
G04 APERTURE END LIST*
D10*
X83154819Y-78684285D02*
X82154819Y-78684285D01*
X82154819Y-78684285D02*
X82154819Y-78446190D01*
X82154819Y-78446190D02*
X82202438Y-78303333D01*
X82202438Y-78303333D02*
X82297676Y-78208095D01*
X82297676Y-78208095D02*
X82392914Y-78160476D01*
X82392914Y-78160476D02*
X82583390Y-78112857D01*
X82583390Y-78112857D02*
X82726247Y-78112857D01*
X82726247Y-78112857D02*
X82916723Y-78160476D01*
X82916723Y-78160476D02*
X83011961Y-78208095D01*
X83011961Y-78208095D02*
X83107200Y-78303333D01*
X83107200Y-78303333D02*
X83154819Y-78446190D01*
X83154819Y-78446190D02*
X83154819Y-78684285D01*
X83154819Y-77160476D02*
X83154819Y-77731904D01*
X83154819Y-77446190D02*
X82154819Y-77446190D01*
X82154819Y-77446190D02*
X82297676Y-77541428D01*
X82297676Y-77541428D02*
X82392914Y-77636666D01*
X82392914Y-77636666D02*
X82440533Y-77731904D01*
X82488152Y-76303333D02*
X83154819Y-76303333D01*
X82107200Y-76541428D02*
X82821485Y-76779523D01*
X82821485Y-76779523D02*
X82821485Y-76160476D01*
X105918095Y-108884819D02*
X105918095Y-109694342D01*
X105918095Y-109694342D02*
X105965714Y-109789580D01*
X105965714Y-109789580D02*
X106013333Y-109837200D01*
X106013333Y-109837200D02*
X106108571Y-109884819D01*
X106108571Y-109884819D02*
X106299047Y-109884819D01*
X106299047Y-109884819D02*
X106394285Y-109837200D01*
X106394285Y-109837200D02*
X106441904Y-109789580D01*
X106441904Y-109789580D02*
X106489523Y-109694342D01*
X106489523Y-109694342D02*
X106489523Y-108884819D01*
X107489523Y-109884819D02*
X106918095Y-109884819D01*
X107203809Y-109884819D02*
X107203809Y-108884819D01*
X107203809Y-108884819D02*
X107108571Y-109027676D01*
X107108571Y-109027676D02*
X107013333Y-109122914D01*
X107013333Y-109122914D02*
X106918095Y-109170533D01*
X83653333Y-119664819D02*
X83320000Y-119188628D01*
X83081905Y-119664819D02*
X83081905Y-118664819D01*
X83081905Y-118664819D02*
X83462857Y-118664819D01*
X83462857Y-118664819D02*
X83558095Y-118712438D01*
X83558095Y-118712438D02*
X83605714Y-118760057D01*
X83605714Y-118760057D02*
X83653333Y-118855295D01*
X83653333Y-118855295D02*
X83653333Y-118998152D01*
X83653333Y-118998152D02*
X83605714Y-119093390D01*
X83605714Y-119093390D02*
X83558095Y-119141009D01*
X83558095Y-119141009D02*
X83462857Y-119188628D01*
X83462857Y-119188628D02*
X83081905Y-119188628D01*
X83986667Y-118664819D02*
X84605714Y-118664819D01*
X84605714Y-118664819D02*
X84272381Y-119045771D01*
X84272381Y-119045771D02*
X84415238Y-119045771D01*
X84415238Y-119045771D02*
X84510476Y-119093390D01*
X84510476Y-119093390D02*
X84558095Y-119141009D01*
X84558095Y-119141009D02*
X84605714Y-119236247D01*
X84605714Y-119236247D02*
X84605714Y-119474342D01*
X84605714Y-119474342D02*
X84558095Y-119569580D01*
X84558095Y-119569580D02*
X84510476Y-119617200D01*
X84510476Y-119617200D02*
X84415238Y-119664819D01*
X84415238Y-119664819D02*
X84129524Y-119664819D01*
X84129524Y-119664819D02*
X84034286Y-119617200D01*
X84034286Y-119617200D02*
X83986667Y-119569580D01*
X83154819Y-86304285D02*
X82154819Y-86304285D01*
X82154819Y-86304285D02*
X82154819Y-86066190D01*
X82154819Y-86066190D02*
X82202438Y-85923333D01*
X82202438Y-85923333D02*
X82297676Y-85828095D01*
X82297676Y-85828095D02*
X82392914Y-85780476D01*
X82392914Y-85780476D02*
X82583390Y-85732857D01*
X82583390Y-85732857D02*
X82726247Y-85732857D01*
X82726247Y-85732857D02*
X82916723Y-85780476D01*
X82916723Y-85780476D02*
X83011961Y-85828095D01*
X83011961Y-85828095D02*
X83107200Y-85923333D01*
X83107200Y-85923333D02*
X83154819Y-86066190D01*
X83154819Y-86066190D02*
X83154819Y-86304285D01*
X83154819Y-84780476D02*
X83154819Y-85351904D01*
X83154819Y-85066190D02*
X82154819Y-85066190D01*
X82154819Y-85066190D02*
X82297676Y-85161428D01*
X82297676Y-85161428D02*
X82392914Y-85256666D01*
X82392914Y-85256666D02*
X82440533Y-85351904D01*
X82154819Y-84447142D02*
X82154819Y-83828095D01*
X82154819Y-83828095D02*
X82535771Y-84161428D01*
X82535771Y-84161428D02*
X82535771Y-84018571D01*
X82535771Y-84018571D02*
X82583390Y-83923333D01*
X82583390Y-83923333D02*
X82631009Y-83875714D01*
X82631009Y-83875714D02*
X82726247Y-83828095D01*
X82726247Y-83828095D02*
X82964342Y-83828095D01*
X82964342Y-83828095D02*
X83059580Y-83875714D01*
X83059580Y-83875714D02*
X83107200Y-83923333D01*
X83107200Y-83923333D02*
X83154819Y-84018571D01*
X83154819Y-84018571D02*
X83154819Y-84304285D01*
X83154819Y-84304285D02*
X83107200Y-84399523D01*
X83107200Y-84399523D02*
X83059580Y-84447142D01*
X54867200Y-129043332D02*
X54914819Y-128900475D01*
X54914819Y-128900475D02*
X54914819Y-128662380D01*
X54914819Y-128662380D02*
X54867200Y-128567142D01*
X54867200Y-128567142D02*
X54819580Y-128519523D01*
X54819580Y-128519523D02*
X54724342Y-128471904D01*
X54724342Y-128471904D02*
X54629104Y-128471904D01*
X54629104Y-128471904D02*
X54533866Y-128519523D01*
X54533866Y-128519523D02*
X54486247Y-128567142D01*
X54486247Y-128567142D02*
X54438628Y-128662380D01*
X54438628Y-128662380D02*
X54391009Y-128852856D01*
X54391009Y-128852856D02*
X54343390Y-128948094D01*
X54343390Y-128948094D02*
X54295771Y-128995713D01*
X54295771Y-128995713D02*
X54200533Y-129043332D01*
X54200533Y-129043332D02*
X54105295Y-129043332D01*
X54105295Y-129043332D02*
X54010057Y-128995713D01*
X54010057Y-128995713D02*
X53962438Y-128948094D01*
X53962438Y-128948094D02*
X53914819Y-128852856D01*
X53914819Y-128852856D02*
X53914819Y-128614761D01*
X53914819Y-128614761D02*
X53962438Y-128471904D01*
X53914819Y-128138570D02*
X54914819Y-127900475D01*
X54914819Y-127900475D02*
X54200533Y-127709999D01*
X54200533Y-127709999D02*
X54914819Y-127519523D01*
X54914819Y-127519523D02*
X53914819Y-127281428D01*
X54914819Y-126376666D02*
X54914819Y-126948094D01*
X54914819Y-126662380D02*
X53914819Y-126662380D01*
X53914819Y-126662380D02*
X54057676Y-126757618D01*
X54057676Y-126757618D02*
X54152914Y-126852856D01*
X54152914Y-126852856D02*
X54200533Y-126948094D01*
X67914819Y-78208094D02*
X66914819Y-78208094D01*
X66914819Y-78208094D02*
X66914819Y-77969999D01*
X66914819Y-77969999D02*
X66962438Y-77827142D01*
X66962438Y-77827142D02*
X67057676Y-77731904D01*
X67057676Y-77731904D02*
X67152914Y-77684285D01*
X67152914Y-77684285D02*
X67343390Y-77636666D01*
X67343390Y-77636666D02*
X67486247Y-77636666D01*
X67486247Y-77636666D02*
X67676723Y-77684285D01*
X67676723Y-77684285D02*
X67771961Y-77731904D01*
X67771961Y-77731904D02*
X67867200Y-77827142D01*
X67867200Y-77827142D02*
X67914819Y-77969999D01*
X67914819Y-77969999D02*
X67914819Y-78208094D01*
X67248152Y-76779523D02*
X67914819Y-76779523D01*
X66867200Y-77017618D02*
X67581485Y-77255713D01*
X67581485Y-77255713D02*
X67581485Y-76636666D01*
X67914819Y-101068094D02*
X66914819Y-101068094D01*
X66914819Y-101068094D02*
X66914819Y-100829999D01*
X66914819Y-100829999D02*
X66962438Y-100687142D01*
X66962438Y-100687142D02*
X67057676Y-100591904D01*
X67057676Y-100591904D02*
X67152914Y-100544285D01*
X67152914Y-100544285D02*
X67343390Y-100496666D01*
X67343390Y-100496666D02*
X67486247Y-100496666D01*
X67486247Y-100496666D02*
X67676723Y-100544285D01*
X67676723Y-100544285D02*
X67771961Y-100591904D01*
X67771961Y-100591904D02*
X67867200Y-100687142D01*
X67867200Y-100687142D02*
X67914819Y-100829999D01*
X67914819Y-100829999D02*
X67914819Y-101068094D01*
X67914819Y-99544285D02*
X67914819Y-100115713D01*
X67914819Y-99829999D02*
X66914819Y-99829999D01*
X66914819Y-99829999D02*
X67057676Y-99925237D01*
X67057676Y-99925237D02*
X67152914Y-100020475D01*
X67152914Y-100020475D02*
X67200533Y-100115713D01*
X122204819Y-86526666D02*
X121728628Y-86859999D01*
X122204819Y-87098094D02*
X121204819Y-87098094D01*
X121204819Y-87098094D02*
X121204819Y-86717142D01*
X121204819Y-86717142D02*
X121252438Y-86621904D01*
X121252438Y-86621904D02*
X121300057Y-86574285D01*
X121300057Y-86574285D02*
X121395295Y-86526666D01*
X121395295Y-86526666D02*
X121538152Y-86526666D01*
X121538152Y-86526666D02*
X121633390Y-86574285D01*
X121633390Y-86574285D02*
X121681009Y-86621904D01*
X121681009Y-86621904D02*
X121728628Y-86717142D01*
X121728628Y-86717142D02*
X121728628Y-87098094D01*
X121538152Y-85669523D02*
X122204819Y-85669523D01*
X121157200Y-85907618D02*
X121871485Y-86145713D01*
X121871485Y-86145713D02*
X121871485Y-85526666D01*
X75534819Y-78208094D02*
X74534819Y-78208094D01*
X74534819Y-78208094D02*
X74534819Y-77969999D01*
X74534819Y-77969999D02*
X74582438Y-77827142D01*
X74582438Y-77827142D02*
X74677676Y-77731904D01*
X74677676Y-77731904D02*
X74772914Y-77684285D01*
X74772914Y-77684285D02*
X74963390Y-77636666D01*
X74963390Y-77636666D02*
X75106247Y-77636666D01*
X75106247Y-77636666D02*
X75296723Y-77684285D01*
X75296723Y-77684285D02*
X75391961Y-77731904D01*
X75391961Y-77731904D02*
X75487200Y-77827142D01*
X75487200Y-77827142D02*
X75534819Y-77969999D01*
X75534819Y-77969999D02*
X75534819Y-78208094D01*
X74534819Y-77303332D02*
X74534819Y-76636666D01*
X74534819Y-76636666D02*
X75534819Y-77065237D01*
X67914819Y-85828094D02*
X66914819Y-85828094D01*
X66914819Y-85828094D02*
X66914819Y-85589999D01*
X66914819Y-85589999D02*
X66962438Y-85447142D01*
X66962438Y-85447142D02*
X67057676Y-85351904D01*
X67057676Y-85351904D02*
X67152914Y-85304285D01*
X67152914Y-85304285D02*
X67343390Y-85256666D01*
X67343390Y-85256666D02*
X67486247Y-85256666D01*
X67486247Y-85256666D02*
X67676723Y-85304285D01*
X67676723Y-85304285D02*
X67771961Y-85351904D01*
X67771961Y-85351904D02*
X67867200Y-85447142D01*
X67867200Y-85447142D02*
X67914819Y-85589999D01*
X67914819Y-85589999D02*
X67914819Y-85828094D01*
X66914819Y-84923332D02*
X66914819Y-84304285D01*
X66914819Y-84304285D02*
X67295771Y-84637618D01*
X67295771Y-84637618D02*
X67295771Y-84494761D01*
X67295771Y-84494761D02*
X67343390Y-84399523D01*
X67343390Y-84399523D02*
X67391009Y-84351904D01*
X67391009Y-84351904D02*
X67486247Y-84304285D01*
X67486247Y-84304285D02*
X67724342Y-84304285D01*
X67724342Y-84304285D02*
X67819580Y-84351904D01*
X67819580Y-84351904D02*
X67867200Y-84399523D01*
X67867200Y-84399523D02*
X67914819Y-84494761D01*
X67914819Y-84494761D02*
X67914819Y-84780475D01*
X67914819Y-84780475D02*
X67867200Y-84875713D01*
X67867200Y-84875713D02*
X67819580Y-84923332D01*
X77283333Y-154089580D02*
X77235714Y-154137200D01*
X77235714Y-154137200D02*
X77092857Y-154184819D01*
X77092857Y-154184819D02*
X76997619Y-154184819D01*
X76997619Y-154184819D02*
X76854762Y-154137200D01*
X76854762Y-154137200D02*
X76759524Y-154041961D01*
X76759524Y-154041961D02*
X76711905Y-153946723D01*
X76711905Y-153946723D02*
X76664286Y-153756247D01*
X76664286Y-153756247D02*
X76664286Y-153613390D01*
X76664286Y-153613390D02*
X76711905Y-153422914D01*
X76711905Y-153422914D02*
X76759524Y-153327676D01*
X76759524Y-153327676D02*
X76854762Y-153232438D01*
X76854762Y-153232438D02*
X76997619Y-153184819D01*
X76997619Y-153184819D02*
X77092857Y-153184819D01*
X77092857Y-153184819D02*
X77235714Y-153232438D01*
X77235714Y-153232438D02*
X77283333Y-153280057D01*
X77664286Y-153280057D02*
X77711905Y-153232438D01*
X77711905Y-153232438D02*
X77807143Y-153184819D01*
X77807143Y-153184819D02*
X78045238Y-153184819D01*
X78045238Y-153184819D02*
X78140476Y-153232438D01*
X78140476Y-153232438D02*
X78188095Y-153280057D01*
X78188095Y-153280057D02*
X78235714Y-153375295D01*
X78235714Y-153375295D02*
X78235714Y-153470533D01*
X78235714Y-153470533D02*
X78188095Y-153613390D01*
X78188095Y-153613390D02*
X77616667Y-154184819D01*
X77616667Y-154184819D02*
X78235714Y-154184819D01*
X75534819Y-85828094D02*
X74534819Y-85828094D01*
X74534819Y-85828094D02*
X74534819Y-85589999D01*
X74534819Y-85589999D02*
X74582438Y-85447142D01*
X74582438Y-85447142D02*
X74677676Y-85351904D01*
X74677676Y-85351904D02*
X74772914Y-85304285D01*
X74772914Y-85304285D02*
X74963390Y-85256666D01*
X74963390Y-85256666D02*
X75106247Y-85256666D01*
X75106247Y-85256666D02*
X75296723Y-85304285D01*
X75296723Y-85304285D02*
X75391961Y-85351904D01*
X75391961Y-85351904D02*
X75487200Y-85447142D01*
X75487200Y-85447142D02*
X75534819Y-85589999D01*
X75534819Y-85589999D02*
X75534819Y-85828094D01*
X74963390Y-84685237D02*
X74915771Y-84780475D01*
X74915771Y-84780475D02*
X74868152Y-84828094D01*
X74868152Y-84828094D02*
X74772914Y-84875713D01*
X74772914Y-84875713D02*
X74725295Y-84875713D01*
X74725295Y-84875713D02*
X74630057Y-84828094D01*
X74630057Y-84828094D02*
X74582438Y-84780475D01*
X74582438Y-84780475D02*
X74534819Y-84685237D01*
X74534819Y-84685237D02*
X74534819Y-84494761D01*
X74534819Y-84494761D02*
X74582438Y-84399523D01*
X74582438Y-84399523D02*
X74630057Y-84351904D01*
X74630057Y-84351904D02*
X74725295Y-84304285D01*
X74725295Y-84304285D02*
X74772914Y-84304285D01*
X74772914Y-84304285D02*
X74868152Y-84351904D01*
X74868152Y-84351904D02*
X74915771Y-84399523D01*
X74915771Y-84399523D02*
X74963390Y-84494761D01*
X74963390Y-84494761D02*
X74963390Y-84685237D01*
X74963390Y-84685237D02*
X75011009Y-84780475D01*
X75011009Y-84780475D02*
X75058628Y-84828094D01*
X75058628Y-84828094D02*
X75153866Y-84875713D01*
X75153866Y-84875713D02*
X75344342Y-84875713D01*
X75344342Y-84875713D02*
X75439580Y-84828094D01*
X75439580Y-84828094D02*
X75487200Y-84780475D01*
X75487200Y-84780475D02*
X75534819Y-84685237D01*
X75534819Y-84685237D02*
X75534819Y-84494761D01*
X75534819Y-84494761D02*
X75487200Y-84399523D01*
X75487200Y-84399523D02*
X75439580Y-84351904D01*
X75439580Y-84351904D02*
X75344342Y-84304285D01*
X75344342Y-84304285D02*
X75153866Y-84304285D01*
X75153866Y-84304285D02*
X75058628Y-84351904D01*
X75058628Y-84351904D02*
X75011009Y-84399523D01*
X75011009Y-84399523D02*
X74963390Y-84494761D01*
X75534819Y-101544285D02*
X74534819Y-101544285D01*
X74534819Y-101544285D02*
X74534819Y-101306190D01*
X74534819Y-101306190D02*
X74582438Y-101163333D01*
X74582438Y-101163333D02*
X74677676Y-101068095D01*
X74677676Y-101068095D02*
X74772914Y-101020476D01*
X74772914Y-101020476D02*
X74963390Y-100972857D01*
X74963390Y-100972857D02*
X75106247Y-100972857D01*
X75106247Y-100972857D02*
X75296723Y-101020476D01*
X75296723Y-101020476D02*
X75391961Y-101068095D01*
X75391961Y-101068095D02*
X75487200Y-101163333D01*
X75487200Y-101163333D02*
X75534819Y-101306190D01*
X75534819Y-101306190D02*
X75534819Y-101544285D01*
X75534819Y-100020476D02*
X75534819Y-100591904D01*
X75534819Y-100306190D02*
X74534819Y-100306190D01*
X74534819Y-100306190D02*
X74677676Y-100401428D01*
X74677676Y-100401428D02*
X74772914Y-100496666D01*
X74772914Y-100496666D02*
X74820533Y-100591904D01*
X74534819Y-99401428D02*
X74534819Y-99306190D01*
X74534819Y-99306190D02*
X74582438Y-99210952D01*
X74582438Y-99210952D02*
X74630057Y-99163333D01*
X74630057Y-99163333D02*
X74725295Y-99115714D01*
X74725295Y-99115714D02*
X74915771Y-99068095D01*
X74915771Y-99068095D02*
X75153866Y-99068095D01*
X75153866Y-99068095D02*
X75344342Y-99115714D01*
X75344342Y-99115714D02*
X75439580Y-99163333D01*
X75439580Y-99163333D02*
X75487200Y-99210952D01*
X75487200Y-99210952D02*
X75534819Y-99306190D01*
X75534819Y-99306190D02*
X75534819Y-99401428D01*
X75534819Y-99401428D02*
X75487200Y-99496666D01*
X75487200Y-99496666D02*
X75439580Y-99544285D01*
X75439580Y-99544285D02*
X75344342Y-99591904D01*
X75344342Y-99591904D02*
X75153866Y-99639523D01*
X75153866Y-99639523D02*
X74915771Y-99639523D01*
X74915771Y-99639523D02*
X74725295Y-99591904D01*
X74725295Y-99591904D02*
X74630057Y-99544285D01*
X74630057Y-99544285D02*
X74582438Y-99496666D01*
X74582438Y-99496666D02*
X74534819Y-99401428D01*
X77283333Y-143929580D02*
X77235714Y-143977200D01*
X77235714Y-143977200D02*
X77092857Y-144024819D01*
X77092857Y-144024819D02*
X76997619Y-144024819D01*
X76997619Y-144024819D02*
X76854762Y-143977200D01*
X76854762Y-143977200D02*
X76759524Y-143881961D01*
X76759524Y-143881961D02*
X76711905Y-143786723D01*
X76711905Y-143786723D02*
X76664286Y-143596247D01*
X76664286Y-143596247D02*
X76664286Y-143453390D01*
X76664286Y-143453390D02*
X76711905Y-143262914D01*
X76711905Y-143262914D02*
X76759524Y-143167676D01*
X76759524Y-143167676D02*
X76854762Y-143072438D01*
X76854762Y-143072438D02*
X76997619Y-143024819D01*
X76997619Y-143024819D02*
X77092857Y-143024819D01*
X77092857Y-143024819D02*
X77235714Y-143072438D01*
X77235714Y-143072438D02*
X77283333Y-143120057D01*
X78188095Y-143024819D02*
X77711905Y-143024819D01*
X77711905Y-143024819D02*
X77664286Y-143501009D01*
X77664286Y-143501009D02*
X77711905Y-143453390D01*
X77711905Y-143453390D02*
X77807143Y-143405771D01*
X77807143Y-143405771D02*
X78045238Y-143405771D01*
X78045238Y-143405771D02*
X78140476Y-143453390D01*
X78140476Y-143453390D02*
X78188095Y-143501009D01*
X78188095Y-143501009D02*
X78235714Y-143596247D01*
X78235714Y-143596247D02*
X78235714Y-143834342D01*
X78235714Y-143834342D02*
X78188095Y-143929580D01*
X78188095Y-143929580D02*
X78140476Y-143977200D01*
X78140476Y-143977200D02*
X78045238Y-144024819D01*
X78045238Y-144024819D02*
X77807143Y-144024819D01*
X77807143Y-144024819D02*
X77711905Y-143977200D01*
X77711905Y-143977200D02*
X77664286Y-143929580D01*
X75534819Y-93448094D02*
X74534819Y-93448094D01*
X74534819Y-93448094D02*
X74534819Y-93209999D01*
X74534819Y-93209999D02*
X74582438Y-93067142D01*
X74582438Y-93067142D02*
X74677676Y-92971904D01*
X74677676Y-92971904D02*
X74772914Y-92924285D01*
X74772914Y-92924285D02*
X74963390Y-92876666D01*
X74963390Y-92876666D02*
X75106247Y-92876666D01*
X75106247Y-92876666D02*
X75296723Y-92924285D01*
X75296723Y-92924285D02*
X75391961Y-92971904D01*
X75391961Y-92971904D02*
X75487200Y-93067142D01*
X75487200Y-93067142D02*
X75534819Y-93209999D01*
X75534819Y-93209999D02*
X75534819Y-93448094D01*
X75534819Y-92400475D02*
X75534819Y-92209999D01*
X75534819Y-92209999D02*
X75487200Y-92114761D01*
X75487200Y-92114761D02*
X75439580Y-92067142D01*
X75439580Y-92067142D02*
X75296723Y-91971904D01*
X75296723Y-91971904D02*
X75106247Y-91924285D01*
X75106247Y-91924285D02*
X74725295Y-91924285D01*
X74725295Y-91924285D02*
X74630057Y-91971904D01*
X74630057Y-91971904D02*
X74582438Y-92019523D01*
X74582438Y-92019523D02*
X74534819Y-92114761D01*
X74534819Y-92114761D02*
X74534819Y-92305237D01*
X74534819Y-92305237D02*
X74582438Y-92400475D01*
X74582438Y-92400475D02*
X74630057Y-92448094D01*
X74630057Y-92448094D02*
X74725295Y-92495713D01*
X74725295Y-92495713D02*
X74963390Y-92495713D01*
X74963390Y-92495713D02*
X75058628Y-92448094D01*
X75058628Y-92448094D02*
X75106247Y-92400475D01*
X75106247Y-92400475D02*
X75153866Y-92305237D01*
X75153866Y-92305237D02*
X75153866Y-92114761D01*
X75153866Y-92114761D02*
X75106247Y-92019523D01*
X75106247Y-92019523D02*
X75058628Y-91971904D01*
X75058628Y-91971904D02*
X74963390Y-91924285D01*
X83154819Y-93924285D02*
X82154819Y-93924285D01*
X82154819Y-93924285D02*
X82154819Y-93686190D01*
X82154819Y-93686190D02*
X82202438Y-93543333D01*
X82202438Y-93543333D02*
X82297676Y-93448095D01*
X82297676Y-93448095D02*
X82392914Y-93400476D01*
X82392914Y-93400476D02*
X82583390Y-93352857D01*
X82583390Y-93352857D02*
X82726247Y-93352857D01*
X82726247Y-93352857D02*
X82916723Y-93400476D01*
X82916723Y-93400476D02*
X83011961Y-93448095D01*
X83011961Y-93448095D02*
X83107200Y-93543333D01*
X83107200Y-93543333D02*
X83154819Y-93686190D01*
X83154819Y-93686190D02*
X83154819Y-93924285D01*
X83154819Y-92400476D02*
X83154819Y-92971904D01*
X83154819Y-92686190D02*
X82154819Y-92686190D01*
X82154819Y-92686190D02*
X82297676Y-92781428D01*
X82297676Y-92781428D02*
X82392914Y-92876666D01*
X82392914Y-92876666D02*
X82440533Y-92971904D01*
X82250057Y-92019523D02*
X82202438Y-91971904D01*
X82202438Y-91971904D02*
X82154819Y-91876666D01*
X82154819Y-91876666D02*
X82154819Y-91638571D01*
X82154819Y-91638571D02*
X82202438Y-91543333D01*
X82202438Y-91543333D02*
X82250057Y-91495714D01*
X82250057Y-91495714D02*
X82345295Y-91448095D01*
X82345295Y-91448095D02*
X82440533Y-91448095D01*
X82440533Y-91448095D02*
X82583390Y-91495714D01*
X82583390Y-91495714D02*
X83154819Y-92067142D01*
X83154819Y-92067142D02*
X83154819Y-91448095D01*
X89858628Y-152776190D02*
X90334819Y-152776190D01*
X89334819Y-153109523D02*
X89858628Y-152776190D01*
X89858628Y-152776190D02*
X89334819Y-152442857D01*
X90334819Y-151585714D02*
X90334819Y-152157142D01*
X90334819Y-151871428D02*
X89334819Y-151871428D01*
X89334819Y-151871428D02*
X89477676Y-151966666D01*
X89477676Y-151966666D02*
X89572914Y-152061904D01*
X89572914Y-152061904D02*
X89620533Y-152157142D01*
X67914819Y-70588094D02*
X66914819Y-70588094D01*
X66914819Y-70588094D02*
X66914819Y-70349999D01*
X66914819Y-70349999D02*
X66962438Y-70207142D01*
X66962438Y-70207142D02*
X67057676Y-70111904D01*
X67057676Y-70111904D02*
X67152914Y-70064285D01*
X67152914Y-70064285D02*
X67343390Y-70016666D01*
X67343390Y-70016666D02*
X67486247Y-70016666D01*
X67486247Y-70016666D02*
X67676723Y-70064285D01*
X67676723Y-70064285D02*
X67771961Y-70111904D01*
X67771961Y-70111904D02*
X67867200Y-70207142D01*
X67867200Y-70207142D02*
X67914819Y-70349999D01*
X67914819Y-70349999D02*
X67914819Y-70588094D01*
X66914819Y-69111904D02*
X66914819Y-69588094D01*
X66914819Y-69588094D02*
X67391009Y-69635713D01*
X67391009Y-69635713D02*
X67343390Y-69588094D01*
X67343390Y-69588094D02*
X67295771Y-69492856D01*
X67295771Y-69492856D02*
X67295771Y-69254761D01*
X67295771Y-69254761D02*
X67343390Y-69159523D01*
X67343390Y-69159523D02*
X67391009Y-69111904D01*
X67391009Y-69111904D02*
X67486247Y-69064285D01*
X67486247Y-69064285D02*
X67724342Y-69064285D01*
X67724342Y-69064285D02*
X67819580Y-69111904D01*
X67819580Y-69111904D02*
X67867200Y-69159523D01*
X67867200Y-69159523D02*
X67914819Y-69254761D01*
X67914819Y-69254761D02*
X67914819Y-69492856D01*
X67914819Y-69492856D02*
X67867200Y-69588094D01*
X67867200Y-69588094D02*
X67819580Y-69635713D01*
X67914819Y-93448094D02*
X66914819Y-93448094D01*
X66914819Y-93448094D02*
X66914819Y-93209999D01*
X66914819Y-93209999D02*
X66962438Y-93067142D01*
X66962438Y-93067142D02*
X67057676Y-92971904D01*
X67057676Y-92971904D02*
X67152914Y-92924285D01*
X67152914Y-92924285D02*
X67343390Y-92876666D01*
X67343390Y-92876666D02*
X67486247Y-92876666D01*
X67486247Y-92876666D02*
X67676723Y-92924285D01*
X67676723Y-92924285D02*
X67771961Y-92971904D01*
X67771961Y-92971904D02*
X67867200Y-93067142D01*
X67867200Y-93067142D02*
X67914819Y-93209999D01*
X67914819Y-93209999D02*
X67914819Y-93448094D01*
X67010057Y-92495713D02*
X66962438Y-92448094D01*
X66962438Y-92448094D02*
X66914819Y-92352856D01*
X66914819Y-92352856D02*
X66914819Y-92114761D01*
X66914819Y-92114761D02*
X66962438Y-92019523D01*
X66962438Y-92019523D02*
X67010057Y-91971904D01*
X67010057Y-91971904D02*
X67105295Y-91924285D01*
X67105295Y-91924285D02*
X67200533Y-91924285D01*
X67200533Y-91924285D02*
X67343390Y-91971904D01*
X67343390Y-91971904D02*
X67914819Y-92543332D01*
X67914819Y-92543332D02*
X67914819Y-91924285D01*
X76033333Y-114584819D02*
X75700000Y-114108628D01*
X75461905Y-114584819D02*
X75461905Y-113584819D01*
X75461905Y-113584819D02*
X75842857Y-113584819D01*
X75842857Y-113584819D02*
X75938095Y-113632438D01*
X75938095Y-113632438D02*
X75985714Y-113680057D01*
X75985714Y-113680057D02*
X76033333Y-113775295D01*
X76033333Y-113775295D02*
X76033333Y-113918152D01*
X76033333Y-113918152D02*
X75985714Y-114013390D01*
X75985714Y-114013390D02*
X75938095Y-114061009D01*
X75938095Y-114061009D02*
X75842857Y-114108628D01*
X75842857Y-114108628D02*
X75461905Y-114108628D01*
X76414286Y-113680057D02*
X76461905Y-113632438D01*
X76461905Y-113632438D02*
X76557143Y-113584819D01*
X76557143Y-113584819D02*
X76795238Y-113584819D01*
X76795238Y-113584819D02*
X76890476Y-113632438D01*
X76890476Y-113632438D02*
X76938095Y-113680057D01*
X76938095Y-113680057D02*
X76985714Y-113775295D01*
X76985714Y-113775295D02*
X76985714Y-113870533D01*
X76985714Y-113870533D02*
X76938095Y-114013390D01*
X76938095Y-114013390D02*
X76366667Y-114584819D01*
X76366667Y-114584819D02*
X76985714Y-114584819D01*
X111439580Y-85236666D02*
X111487200Y-85284285D01*
X111487200Y-85284285D02*
X111534819Y-85427142D01*
X111534819Y-85427142D02*
X111534819Y-85522380D01*
X111534819Y-85522380D02*
X111487200Y-85665237D01*
X111487200Y-85665237D02*
X111391961Y-85760475D01*
X111391961Y-85760475D02*
X111296723Y-85808094D01*
X111296723Y-85808094D02*
X111106247Y-85855713D01*
X111106247Y-85855713D02*
X110963390Y-85855713D01*
X110963390Y-85855713D02*
X110772914Y-85808094D01*
X110772914Y-85808094D02*
X110677676Y-85760475D01*
X110677676Y-85760475D02*
X110582438Y-85665237D01*
X110582438Y-85665237D02*
X110534819Y-85522380D01*
X110534819Y-85522380D02*
X110534819Y-85427142D01*
X110534819Y-85427142D02*
X110582438Y-85284285D01*
X110582438Y-85284285D02*
X110630057Y-85236666D01*
X110534819Y-84903332D02*
X110534819Y-84284285D01*
X110534819Y-84284285D02*
X110915771Y-84617618D01*
X110915771Y-84617618D02*
X110915771Y-84474761D01*
X110915771Y-84474761D02*
X110963390Y-84379523D01*
X110963390Y-84379523D02*
X111011009Y-84331904D01*
X111011009Y-84331904D02*
X111106247Y-84284285D01*
X111106247Y-84284285D02*
X111344342Y-84284285D01*
X111344342Y-84284285D02*
X111439580Y-84331904D01*
X111439580Y-84331904D02*
X111487200Y-84379523D01*
X111487200Y-84379523D02*
X111534819Y-84474761D01*
X111534819Y-84474761D02*
X111534819Y-84760475D01*
X111534819Y-84760475D02*
X111487200Y-84855713D01*
X111487200Y-84855713D02*
X111439580Y-84903332D01*
X75534819Y-70588094D02*
X74534819Y-70588094D01*
X74534819Y-70588094D02*
X74534819Y-70349999D01*
X74534819Y-70349999D02*
X74582438Y-70207142D01*
X74582438Y-70207142D02*
X74677676Y-70111904D01*
X74677676Y-70111904D02*
X74772914Y-70064285D01*
X74772914Y-70064285D02*
X74963390Y-70016666D01*
X74963390Y-70016666D02*
X75106247Y-70016666D01*
X75106247Y-70016666D02*
X75296723Y-70064285D01*
X75296723Y-70064285D02*
X75391961Y-70111904D01*
X75391961Y-70111904D02*
X75487200Y-70207142D01*
X75487200Y-70207142D02*
X75534819Y-70349999D01*
X75534819Y-70349999D02*
X75534819Y-70588094D01*
X74534819Y-69159523D02*
X74534819Y-69349999D01*
X74534819Y-69349999D02*
X74582438Y-69445237D01*
X74582438Y-69445237D02*
X74630057Y-69492856D01*
X74630057Y-69492856D02*
X74772914Y-69588094D01*
X74772914Y-69588094D02*
X74963390Y-69635713D01*
X74963390Y-69635713D02*
X75344342Y-69635713D01*
X75344342Y-69635713D02*
X75439580Y-69588094D01*
X75439580Y-69588094D02*
X75487200Y-69540475D01*
X75487200Y-69540475D02*
X75534819Y-69445237D01*
X75534819Y-69445237D02*
X75534819Y-69254761D01*
X75534819Y-69254761D02*
X75487200Y-69159523D01*
X75487200Y-69159523D02*
X75439580Y-69111904D01*
X75439580Y-69111904D02*
X75344342Y-69064285D01*
X75344342Y-69064285D02*
X75106247Y-69064285D01*
X75106247Y-69064285D02*
X75011009Y-69111904D01*
X75011009Y-69111904D02*
X74963390Y-69159523D01*
X74963390Y-69159523D02*
X74915771Y-69254761D01*
X74915771Y-69254761D02*
X74915771Y-69445237D01*
X74915771Y-69445237D02*
X74963390Y-69540475D01*
X74963390Y-69540475D02*
X75011009Y-69588094D01*
X75011009Y-69588094D02*
X75106247Y-69635713D01*
X73339580Y-133496666D02*
X73387200Y-133544285D01*
X73387200Y-133544285D02*
X73434819Y-133687142D01*
X73434819Y-133687142D02*
X73434819Y-133782380D01*
X73434819Y-133782380D02*
X73387200Y-133925237D01*
X73387200Y-133925237D02*
X73291961Y-134020475D01*
X73291961Y-134020475D02*
X73196723Y-134068094D01*
X73196723Y-134068094D02*
X73006247Y-134115713D01*
X73006247Y-134115713D02*
X72863390Y-134115713D01*
X72863390Y-134115713D02*
X72672914Y-134068094D01*
X72672914Y-134068094D02*
X72577676Y-134020475D01*
X72577676Y-134020475D02*
X72482438Y-133925237D01*
X72482438Y-133925237D02*
X72434819Y-133782380D01*
X72434819Y-133782380D02*
X72434819Y-133687142D01*
X72434819Y-133687142D02*
X72482438Y-133544285D01*
X72482438Y-133544285D02*
X72530057Y-133496666D01*
X72768152Y-132639523D02*
X73434819Y-132639523D01*
X72387200Y-132877618D02*
X73101485Y-133115713D01*
X73101485Y-133115713D02*
X73101485Y-132496666D01*
X83154819Y-101544285D02*
X82154819Y-101544285D01*
X82154819Y-101544285D02*
X82154819Y-101306190D01*
X82154819Y-101306190D02*
X82202438Y-101163333D01*
X82202438Y-101163333D02*
X82297676Y-101068095D01*
X82297676Y-101068095D02*
X82392914Y-101020476D01*
X82392914Y-101020476D02*
X82583390Y-100972857D01*
X82583390Y-100972857D02*
X82726247Y-100972857D01*
X82726247Y-100972857D02*
X82916723Y-101020476D01*
X82916723Y-101020476D02*
X83011961Y-101068095D01*
X83011961Y-101068095D02*
X83107200Y-101163333D01*
X83107200Y-101163333D02*
X83154819Y-101306190D01*
X83154819Y-101306190D02*
X83154819Y-101544285D01*
X83154819Y-100020476D02*
X83154819Y-100591904D01*
X83154819Y-100306190D02*
X82154819Y-100306190D01*
X82154819Y-100306190D02*
X82297676Y-100401428D01*
X82297676Y-100401428D02*
X82392914Y-100496666D01*
X82392914Y-100496666D02*
X82440533Y-100591904D01*
X83154819Y-99068095D02*
X83154819Y-99639523D01*
X83154819Y-99353809D02*
X82154819Y-99353809D01*
X82154819Y-99353809D02*
X82297676Y-99449047D01*
X82297676Y-99449047D02*
X82392914Y-99544285D01*
X82392914Y-99544285D02*
X82440533Y-99639523D01*
X105869580Y-72576666D02*
X105917200Y-72624285D01*
X105917200Y-72624285D02*
X105964819Y-72767142D01*
X105964819Y-72767142D02*
X105964819Y-72862380D01*
X105964819Y-72862380D02*
X105917200Y-73005237D01*
X105917200Y-73005237D02*
X105821961Y-73100475D01*
X105821961Y-73100475D02*
X105726723Y-73148094D01*
X105726723Y-73148094D02*
X105536247Y-73195713D01*
X105536247Y-73195713D02*
X105393390Y-73195713D01*
X105393390Y-73195713D02*
X105202914Y-73148094D01*
X105202914Y-73148094D02*
X105107676Y-73100475D01*
X105107676Y-73100475D02*
X105012438Y-73005237D01*
X105012438Y-73005237D02*
X104964819Y-72862380D01*
X104964819Y-72862380D02*
X104964819Y-72767142D01*
X104964819Y-72767142D02*
X105012438Y-72624285D01*
X105012438Y-72624285D02*
X105060057Y-72576666D01*
X105964819Y-71624285D02*
X105964819Y-72195713D01*
X105964819Y-71909999D02*
X104964819Y-71909999D01*
X104964819Y-71909999D02*
X105107676Y-72005237D01*
X105107676Y-72005237D02*
X105202914Y-72100475D01*
X105202914Y-72100475D02*
X105250533Y-72195713D01*
X83154819Y-71064285D02*
X82154819Y-71064285D01*
X82154819Y-71064285D02*
X82154819Y-70826190D01*
X82154819Y-70826190D02*
X82202438Y-70683333D01*
X82202438Y-70683333D02*
X82297676Y-70588095D01*
X82297676Y-70588095D02*
X82392914Y-70540476D01*
X82392914Y-70540476D02*
X82583390Y-70492857D01*
X82583390Y-70492857D02*
X82726247Y-70492857D01*
X82726247Y-70492857D02*
X82916723Y-70540476D01*
X82916723Y-70540476D02*
X83011961Y-70588095D01*
X83011961Y-70588095D02*
X83107200Y-70683333D01*
X83107200Y-70683333D02*
X83154819Y-70826190D01*
X83154819Y-70826190D02*
X83154819Y-71064285D01*
X83154819Y-69540476D02*
X83154819Y-70111904D01*
X83154819Y-69826190D02*
X82154819Y-69826190D01*
X82154819Y-69826190D02*
X82297676Y-69921428D01*
X82297676Y-69921428D02*
X82392914Y-70016666D01*
X82392914Y-70016666D02*
X82440533Y-70111904D01*
X82154819Y-68635714D02*
X82154819Y-69111904D01*
X82154819Y-69111904D02*
X82631009Y-69159523D01*
X82631009Y-69159523D02*
X82583390Y-69111904D01*
X82583390Y-69111904D02*
X82535771Y-69016666D01*
X82535771Y-69016666D02*
X82535771Y-68778571D01*
X82535771Y-68778571D02*
X82583390Y-68683333D01*
X82583390Y-68683333D02*
X82631009Y-68635714D01*
X82631009Y-68635714D02*
X82726247Y-68588095D01*
X82726247Y-68588095D02*
X82964342Y-68588095D01*
X82964342Y-68588095D02*
X83059580Y-68635714D01*
X83059580Y-68635714D02*
X83107200Y-68683333D01*
X83107200Y-68683333D02*
X83154819Y-68778571D01*
X83154819Y-68778571D02*
X83154819Y-69016666D01*
X83154819Y-69016666D02*
X83107200Y-69111904D01*
X83107200Y-69111904D02*
X83059580Y-69159523D01*
X-154456441Y-93314819D02*
X-154789774Y-92838628D01*
X-155027869Y-93314819D02*
X-155027869Y-92314819D01*
X-155027869Y-92314819D02*
X-154646917Y-92314819D01*
X-154646917Y-92314819D02*
X-154551679Y-92362438D01*
X-154551679Y-92362438D02*
X-154504060Y-92410057D01*
X-154504060Y-92410057D02*
X-154456441Y-92505295D01*
X-154456441Y-92505295D02*
X-154456441Y-92648152D01*
X-154456441Y-92648152D02*
X-154504060Y-92743390D01*
X-154504060Y-92743390D02*
X-154551679Y-92791009D01*
X-154551679Y-92791009D02*
X-154646917Y-92838628D01*
X-154646917Y-92838628D02*
X-155027869Y-92838628D01*
X-153504060Y-93314819D02*
X-154075488Y-93314819D01*
X-153789774Y-93314819D02*
X-153789774Y-92314819D01*
X-153789774Y-92314819D02*
X-153885012Y-92457676D01*
X-153885012Y-92457676D02*
X-153980250Y-92552914D01*
X-153980250Y-92552914D02*
X-154075488Y-92600533D01*
D11*
%TO.C,D14*%
X80285000Y-74910000D02*
X77195000Y-74910000D01*
X78740000Y-80460000D02*
G75*
G02*
X77195170Y-74910000I0J2990000D01*
G01*
X80284830Y-74910000D02*
G75*
G02*
X78740000Y-80460000I-1544830J-2560000D01*
G01*
X81240000Y-77470000D02*
G75*
G02*
X76240000Y-77470000I-2500000J0D01*
G01*
X76240000Y-77470000D02*
G75*
G02*
X81240000Y-77470000I2500000J0D01*
G01*
%TO.C,U1*%
X95140000Y-110430000D02*
X95140000Y-161350000D01*
X95140000Y-161350000D02*
X118220000Y-161350000D01*
X105680000Y-110430000D02*
X95140000Y-110430000D01*
X118220000Y-110430000D02*
X107680000Y-110430000D01*
X118220000Y-161350000D02*
X118220000Y-110430000D01*
X107680000Y-110430000D02*
G75*
G02*
X105680000Y-110430000I-1000000J0D01*
G01*
%TO.C,R3*%
X79780000Y-116840000D02*
X80550000Y-116840000D01*
X87860000Y-116840000D02*
X87090000Y-116840000D01*
X87090000Y-118210000D02*
X80550000Y-118210000D01*
X80550000Y-115470000D01*
X87090000Y-115470000D01*
X87090000Y-118210000D01*
%TO.C,D13*%
X80285000Y-82530000D02*
X77195000Y-82530000D01*
X78740000Y-88080000D02*
G75*
G02*
X77195170Y-82530000I0J2990000D01*
G01*
X80284830Y-82530000D02*
G75*
G02*
X78740000Y-88080000I-1544830J-2560000D01*
G01*
X81240000Y-85090000D02*
G75*
G02*
X76240000Y-85090000I-2500000J0D01*
G01*
X76240000Y-85090000D02*
G75*
G02*
X81240000Y-85090000I2500000J0D01*
G01*
%TO.C,SW1*%
X55460000Y-125460000D02*
X55460000Y-129960000D01*
X57960000Y-131210000D02*
X59460000Y-131210000D01*
X59460000Y-124210000D02*
X57960000Y-124210000D01*
X61960000Y-129960000D02*
X61960000Y-125460000D01*
%TO.C,D4*%
X65045000Y-74910000D02*
X61955000Y-74910000D01*
X63500000Y-80460000D02*
G75*
G02*
X61955170Y-74910000I0J2990000D01*
G01*
X65044830Y-74910000D02*
G75*
G02*
X63500000Y-80460000I-1544830J-2560000D01*
G01*
X66000000Y-77470000D02*
G75*
G02*
X61000000Y-77470000I-2500000J0D01*
G01*
X61000000Y-77470000D02*
G75*
G02*
X66000000Y-77470000I2500000J0D01*
G01*
%TO.C,D1*%
X65045000Y-97770000D02*
X61955000Y-97770000D01*
X63500000Y-103320000D02*
G75*
G02*
X61955170Y-97770000I0J2990000D01*
G01*
X65044830Y-97770000D02*
G75*
G02*
X63500000Y-103320000I-1544830J-2560000D01*
G01*
X66000000Y-100330000D02*
G75*
G02*
X61000000Y-100330000I-2500000J0D01*
G01*
X61000000Y-100330000D02*
G75*
G02*
X66000000Y-100330000I2500000J0D01*
G01*
%TO.C,R4*%
X119380000Y-82320000D02*
X119380000Y-83090000D01*
X119380000Y-90400000D02*
X119380000Y-89630000D01*
X120750000Y-83090000D02*
X118010000Y-83090000D01*
X118010000Y-89630000D01*
X120750000Y-89630000D01*
X120750000Y-83090000D01*
%TO.C,D7*%
X72665000Y-74910000D02*
X69575000Y-74910000D01*
X71120000Y-80460000D02*
G75*
G02*
X69575170Y-74910000I0J2990000D01*
G01*
X72664830Y-74910000D02*
G75*
G02*
X71120000Y-80460000I-1544830J-2560000D01*
G01*
X73620000Y-77470000D02*
G75*
G02*
X68620000Y-77470000I-2500000J0D01*
G01*
X68620000Y-77470000D02*
G75*
G02*
X73620000Y-77470000I2500000J0D01*
G01*
%TO.C,D3*%
X65045000Y-82530000D02*
X61955000Y-82530000D01*
X63500000Y-88080000D02*
G75*
G02*
X61955170Y-82530000I0J2990000D01*
G01*
X65044830Y-82530000D02*
G75*
G02*
X63500000Y-88080000I-1544830J-2560000D01*
G01*
X66000000Y-85090000D02*
G75*
G02*
X61000000Y-85090000I-2500000J0D01*
G01*
X61000000Y-85090000D02*
G75*
G02*
X66000000Y-85090000I2500000J0D01*
G01*
%TO.C,C2*%
X74645225Y-156005000D02*
X75145225Y-156005000D01*
X74895225Y-155755000D02*
X74895225Y-156255000D01*
X77450000Y-154900000D02*
X77450000Y-160060000D01*
X77490000Y-154900000D02*
X77490000Y-160060000D01*
X77530000Y-154901000D02*
X77530000Y-160059000D01*
X77570000Y-154903000D02*
X77570000Y-160057000D01*
X77610000Y-154905000D02*
X77610000Y-160055000D01*
X77650000Y-154908000D02*
X77650000Y-160052000D01*
X77690000Y-154911000D02*
X77690000Y-156440000D01*
X77690000Y-158520000D02*
X77690000Y-160049000D01*
X77730000Y-154915000D02*
X77730000Y-156440000D01*
X77730000Y-158520000D02*
X77730000Y-160045000D01*
X77770000Y-154920000D02*
X77770000Y-156440000D01*
X77770000Y-158520000D02*
X77770000Y-160040000D01*
X77810000Y-154925000D02*
X77810000Y-156440000D01*
X77810000Y-158520000D02*
X77810000Y-160035000D01*
X77850000Y-154931000D02*
X77850000Y-156440000D01*
X77850000Y-158520000D02*
X77850000Y-160029000D01*
X77890000Y-154937000D02*
X77890000Y-156440000D01*
X77890000Y-158520000D02*
X77890000Y-160023000D01*
X77930000Y-154944000D02*
X77930000Y-156440000D01*
X77930000Y-158520000D02*
X77930000Y-160016000D01*
X77970000Y-154952000D02*
X77970000Y-156440000D01*
X77970000Y-158520000D02*
X77970000Y-160008000D01*
X78010000Y-154961000D02*
X78010000Y-156440000D01*
X78010000Y-158520000D02*
X78010000Y-159999000D01*
X78050000Y-154970000D02*
X78050000Y-156440000D01*
X78050000Y-158520000D02*
X78050000Y-159990000D01*
X78090000Y-154979000D02*
X78090000Y-156440000D01*
X78090000Y-158520000D02*
X78090000Y-159981000D01*
X78130000Y-154990000D02*
X78130000Y-156440000D01*
X78130000Y-158520000D02*
X78130000Y-159970000D01*
X78170000Y-155001000D02*
X78170000Y-156440000D01*
X78170000Y-158520000D02*
X78170000Y-159959000D01*
X78210000Y-155013000D02*
X78210000Y-156440000D01*
X78210000Y-158520000D02*
X78210000Y-159947000D01*
X78250000Y-155025000D02*
X78250000Y-156440000D01*
X78250000Y-158520000D02*
X78250000Y-159935000D01*
X78290000Y-155038000D02*
X78290000Y-156440000D01*
X78290000Y-158520000D02*
X78290000Y-159922000D01*
X78330000Y-155052000D02*
X78330000Y-156440000D01*
X78330000Y-158520000D02*
X78330000Y-159908000D01*
X78370000Y-155067000D02*
X78370000Y-156440000D01*
X78370000Y-158520000D02*
X78370000Y-159893000D01*
X78410000Y-155082000D02*
X78410000Y-156440000D01*
X78410000Y-158520000D02*
X78410000Y-159878000D01*
X78450000Y-155098000D02*
X78450000Y-156440000D01*
X78450000Y-158520000D02*
X78450000Y-159862000D01*
X78490000Y-155115000D02*
X78490000Y-156440000D01*
X78490000Y-158520000D02*
X78490000Y-159845000D01*
X78530000Y-155133000D02*
X78530000Y-156440000D01*
X78530000Y-158520000D02*
X78530000Y-159827000D01*
X78570000Y-155151000D02*
X78570000Y-156440000D01*
X78570000Y-158520000D02*
X78570000Y-159809000D01*
X78610000Y-155171000D02*
X78610000Y-156440000D01*
X78610000Y-158520000D02*
X78610000Y-159789000D01*
X78650000Y-155191000D02*
X78650000Y-156440000D01*
X78650000Y-158520000D02*
X78650000Y-159769000D01*
X78690000Y-155212000D02*
X78690000Y-156440000D01*
X78690000Y-158520000D02*
X78690000Y-159748000D01*
X78730000Y-155234000D02*
X78730000Y-156440000D01*
X78730000Y-158520000D02*
X78730000Y-159726000D01*
X78770000Y-155257000D02*
X78770000Y-156440000D01*
X78770000Y-158520000D02*
X78770000Y-159703000D01*
X78810000Y-155281000D02*
X78810000Y-156440000D01*
X78810000Y-158520000D02*
X78810000Y-159679000D01*
X78850000Y-155305000D02*
X78850000Y-156440000D01*
X78850000Y-158520000D02*
X78850000Y-159655000D01*
X78890000Y-155331000D02*
X78890000Y-156440000D01*
X78890000Y-158520000D02*
X78890000Y-159629000D01*
X78930000Y-155358000D02*
X78930000Y-156440000D01*
X78930000Y-158520000D02*
X78930000Y-159602000D01*
X78970000Y-155386000D02*
X78970000Y-156440000D01*
X78970000Y-158520000D02*
X78970000Y-159574000D01*
X79010000Y-155415000D02*
X79010000Y-156440000D01*
X79010000Y-158520000D02*
X79010000Y-159545000D01*
X79050000Y-155445000D02*
X79050000Y-156440000D01*
X79050000Y-158520000D02*
X79050000Y-159515000D01*
X79090000Y-155477000D02*
X79090000Y-156440000D01*
X79090000Y-158520000D02*
X79090000Y-159483000D01*
X79130000Y-155510000D02*
X79130000Y-156440000D01*
X79130000Y-158520000D02*
X79130000Y-159450000D01*
X79170000Y-155544000D02*
X79170000Y-156440000D01*
X79170000Y-158520000D02*
X79170000Y-159416000D01*
X79210000Y-155579000D02*
X79210000Y-156440000D01*
X79210000Y-158520000D02*
X79210000Y-159381000D01*
X79250000Y-155616000D02*
X79250000Y-156440000D01*
X79250000Y-158520000D02*
X79250000Y-159344000D01*
X79290000Y-155655000D02*
X79290000Y-156440000D01*
X79290000Y-158520000D02*
X79290000Y-159305000D01*
X79330000Y-155695000D02*
X79330000Y-156440000D01*
X79330000Y-158520000D02*
X79330000Y-159265000D01*
X79370000Y-155737000D02*
X79370000Y-156440000D01*
X79370000Y-158520000D02*
X79370000Y-159223000D01*
X79410000Y-155781000D02*
X79410000Y-156440000D01*
X79410000Y-158520000D02*
X79410000Y-159179000D01*
X79450000Y-155828000D02*
X79450000Y-156440000D01*
X79450000Y-158520000D02*
X79450000Y-159132000D01*
X79490000Y-155876000D02*
X79490000Y-156440000D01*
X79490000Y-158520000D02*
X79490000Y-159084000D01*
X79530000Y-155927000D02*
X79530000Y-156440000D01*
X79530000Y-158520000D02*
X79530000Y-159033000D01*
X79570000Y-155981000D02*
X79570000Y-156440000D01*
X79570000Y-158520000D02*
X79570000Y-158979000D01*
X79610000Y-156037000D02*
X79610000Y-156440000D01*
X79610000Y-158520000D02*
X79610000Y-158923000D01*
X79650000Y-156097000D02*
X79650000Y-156440000D01*
X79650000Y-158520000D02*
X79650000Y-158863000D01*
X79690000Y-156161000D02*
X79690000Y-156440000D01*
X79690000Y-158520000D02*
X79690000Y-158799000D01*
X79730000Y-156229000D02*
X79730000Y-156440000D01*
X79730000Y-158520000D02*
X79730000Y-158731000D01*
X79770000Y-156303000D02*
X79770000Y-158657000D01*
X79810000Y-156382000D02*
X79810000Y-158578000D01*
X79850000Y-156469000D02*
X79850000Y-158491000D01*
X79890000Y-156566000D02*
X79890000Y-158394000D01*
X79930000Y-156675000D02*
X79930000Y-158285000D01*
X79970000Y-156803000D02*
X79970000Y-158157000D01*
X80010000Y-156963000D02*
X80010000Y-157997000D01*
X80050000Y-157197000D02*
X80050000Y-157763000D01*
X80070000Y-157480000D02*
G75*
G02*
X74830000Y-157480000I-2620000J0D01*
G01*
X74830000Y-157480000D02*
G75*
G02*
X80070000Y-157480000I2620000J0D01*
G01*
%TO.C,D8*%
X72665000Y-82530000D02*
X69575000Y-82530000D01*
X71120000Y-88080000D02*
G75*
G02*
X69575170Y-82530000I0J2990000D01*
G01*
X72664830Y-82530000D02*
G75*
G02*
X71120000Y-88080000I-1544830J-2560000D01*
G01*
X73620000Y-85090000D02*
G75*
G02*
X68620000Y-85090000I-2500000J0D01*
G01*
X68620000Y-85090000D02*
G75*
G02*
X73620000Y-85090000I2500000J0D01*
G01*
%TO.C,D10*%
X72665000Y-97770000D02*
X69575000Y-97770000D01*
X71120000Y-103320000D02*
G75*
G02*
X69575170Y-97770000I0J2990000D01*
G01*
X72664830Y-97770000D02*
G75*
G02*
X71120000Y-103320000I-1544830J-2560000D01*
G01*
X73620000Y-100330000D02*
G75*
G02*
X68620000Y-100330000I-2500000J0D01*
G01*
X68620000Y-100330000D02*
G75*
G02*
X73620000Y-100330000I2500000J0D01*
G01*
%TO.C,C5*%
X74645225Y-145845000D02*
X75145225Y-145845000D01*
X74895225Y-145595000D02*
X74895225Y-146095000D01*
X77450000Y-144740000D02*
X77450000Y-149900000D01*
X77490000Y-144740000D02*
X77490000Y-149900000D01*
X77530000Y-144741000D02*
X77530000Y-149899000D01*
X77570000Y-144743000D02*
X77570000Y-149897000D01*
X77610000Y-144745000D02*
X77610000Y-149895000D01*
X77650000Y-144748000D02*
X77650000Y-149892000D01*
X77690000Y-144751000D02*
X77690000Y-146280000D01*
X77690000Y-148360000D02*
X77690000Y-149889000D01*
X77730000Y-144755000D02*
X77730000Y-146280000D01*
X77730000Y-148360000D02*
X77730000Y-149885000D01*
X77770000Y-144760000D02*
X77770000Y-146280000D01*
X77770000Y-148360000D02*
X77770000Y-149880000D01*
X77810000Y-144765000D02*
X77810000Y-146280000D01*
X77810000Y-148360000D02*
X77810000Y-149875000D01*
X77850000Y-144771000D02*
X77850000Y-146280000D01*
X77850000Y-148360000D02*
X77850000Y-149869000D01*
X77890000Y-144777000D02*
X77890000Y-146280000D01*
X77890000Y-148360000D02*
X77890000Y-149863000D01*
X77930000Y-144784000D02*
X77930000Y-146280000D01*
X77930000Y-148360000D02*
X77930000Y-149856000D01*
X77970000Y-144792000D02*
X77970000Y-146280000D01*
X77970000Y-148360000D02*
X77970000Y-149848000D01*
X78010000Y-144801000D02*
X78010000Y-146280000D01*
X78010000Y-148360000D02*
X78010000Y-149839000D01*
X78050000Y-144810000D02*
X78050000Y-146280000D01*
X78050000Y-148360000D02*
X78050000Y-149830000D01*
X78090000Y-144819000D02*
X78090000Y-146280000D01*
X78090000Y-148360000D02*
X78090000Y-149821000D01*
X78130000Y-144830000D02*
X78130000Y-146280000D01*
X78130000Y-148360000D02*
X78130000Y-149810000D01*
X78170000Y-144841000D02*
X78170000Y-146280000D01*
X78170000Y-148360000D02*
X78170000Y-149799000D01*
X78210000Y-144853000D02*
X78210000Y-146280000D01*
X78210000Y-148360000D02*
X78210000Y-149787000D01*
X78250000Y-144865000D02*
X78250000Y-146280000D01*
X78250000Y-148360000D02*
X78250000Y-149775000D01*
X78290000Y-144878000D02*
X78290000Y-146280000D01*
X78290000Y-148360000D02*
X78290000Y-149762000D01*
X78330000Y-144892000D02*
X78330000Y-146280000D01*
X78330000Y-148360000D02*
X78330000Y-149748000D01*
X78370000Y-144907000D02*
X78370000Y-146280000D01*
X78370000Y-148360000D02*
X78370000Y-149733000D01*
X78410000Y-144922000D02*
X78410000Y-146280000D01*
X78410000Y-148360000D02*
X78410000Y-149718000D01*
X78450000Y-144938000D02*
X78450000Y-146280000D01*
X78450000Y-148360000D02*
X78450000Y-149702000D01*
X78490000Y-144955000D02*
X78490000Y-146280000D01*
X78490000Y-148360000D02*
X78490000Y-149685000D01*
X78530000Y-144973000D02*
X78530000Y-146280000D01*
X78530000Y-148360000D02*
X78530000Y-149667000D01*
X78570000Y-144991000D02*
X78570000Y-146280000D01*
X78570000Y-148360000D02*
X78570000Y-149649000D01*
X78610000Y-145011000D02*
X78610000Y-146280000D01*
X78610000Y-148360000D02*
X78610000Y-149629000D01*
X78650000Y-145031000D02*
X78650000Y-146280000D01*
X78650000Y-148360000D02*
X78650000Y-149609000D01*
X78690000Y-145052000D02*
X78690000Y-146280000D01*
X78690000Y-148360000D02*
X78690000Y-149588000D01*
X78730000Y-145074000D02*
X78730000Y-146280000D01*
X78730000Y-148360000D02*
X78730000Y-149566000D01*
X78770000Y-145097000D02*
X78770000Y-146280000D01*
X78770000Y-148360000D02*
X78770000Y-149543000D01*
X78810000Y-145121000D02*
X78810000Y-146280000D01*
X78810000Y-148360000D02*
X78810000Y-149519000D01*
X78850000Y-145145000D02*
X78850000Y-146280000D01*
X78850000Y-148360000D02*
X78850000Y-149495000D01*
X78890000Y-145171000D02*
X78890000Y-146280000D01*
X78890000Y-148360000D02*
X78890000Y-149469000D01*
X78930000Y-145198000D02*
X78930000Y-146280000D01*
X78930000Y-148360000D02*
X78930000Y-149442000D01*
X78970000Y-145226000D02*
X78970000Y-146280000D01*
X78970000Y-148360000D02*
X78970000Y-149414000D01*
X79010000Y-145255000D02*
X79010000Y-146280000D01*
X79010000Y-148360000D02*
X79010000Y-149385000D01*
X79050000Y-145285000D02*
X79050000Y-146280000D01*
X79050000Y-148360000D02*
X79050000Y-149355000D01*
X79090000Y-145317000D02*
X79090000Y-146280000D01*
X79090000Y-148360000D02*
X79090000Y-149323000D01*
X79130000Y-145350000D02*
X79130000Y-146280000D01*
X79130000Y-148360000D02*
X79130000Y-149290000D01*
X79170000Y-145384000D02*
X79170000Y-146280000D01*
X79170000Y-148360000D02*
X79170000Y-149256000D01*
X79210000Y-145419000D02*
X79210000Y-146280000D01*
X79210000Y-148360000D02*
X79210000Y-149221000D01*
X79250000Y-145456000D02*
X79250000Y-146280000D01*
X79250000Y-148360000D02*
X79250000Y-149184000D01*
X79290000Y-145495000D02*
X79290000Y-146280000D01*
X79290000Y-148360000D02*
X79290000Y-149145000D01*
X79330000Y-145535000D02*
X79330000Y-146280000D01*
X79330000Y-148360000D02*
X79330000Y-149105000D01*
X79370000Y-145577000D02*
X79370000Y-146280000D01*
X79370000Y-148360000D02*
X79370000Y-149063000D01*
X79410000Y-145621000D02*
X79410000Y-146280000D01*
X79410000Y-148360000D02*
X79410000Y-149019000D01*
X79450000Y-145668000D02*
X79450000Y-146280000D01*
X79450000Y-148360000D02*
X79450000Y-148972000D01*
X79490000Y-145716000D02*
X79490000Y-146280000D01*
X79490000Y-148360000D02*
X79490000Y-148924000D01*
X79530000Y-145767000D02*
X79530000Y-146280000D01*
X79530000Y-148360000D02*
X79530000Y-148873000D01*
X79570000Y-145821000D02*
X79570000Y-146280000D01*
X79570000Y-148360000D02*
X79570000Y-148819000D01*
X79610000Y-145877000D02*
X79610000Y-146280000D01*
X79610000Y-148360000D02*
X79610000Y-148763000D01*
X79650000Y-145937000D02*
X79650000Y-146280000D01*
X79650000Y-148360000D02*
X79650000Y-148703000D01*
X79690000Y-146001000D02*
X79690000Y-146280000D01*
X79690000Y-148360000D02*
X79690000Y-148639000D01*
X79730000Y-146069000D02*
X79730000Y-146280000D01*
X79730000Y-148360000D02*
X79730000Y-148571000D01*
X79770000Y-146143000D02*
X79770000Y-148497000D01*
X79810000Y-146222000D02*
X79810000Y-148418000D01*
X79850000Y-146309000D02*
X79850000Y-148331000D01*
X79890000Y-146406000D02*
X79890000Y-148234000D01*
X79930000Y-146515000D02*
X79930000Y-148125000D01*
X79970000Y-146643000D02*
X79970000Y-147997000D01*
X80010000Y-146803000D02*
X80010000Y-147837000D01*
X80050000Y-147037000D02*
X80050000Y-147603000D01*
X80070000Y-147320000D02*
G75*
G02*
X74830000Y-147320000I-2620000J0D01*
G01*
X74830000Y-147320000D02*
G75*
G02*
X80070000Y-147320000I2620000J0D01*
G01*
%TO.C,D9*%
X72665000Y-90150000D02*
X69575000Y-90150000D01*
X71120000Y-95700000D02*
G75*
G02*
X69575170Y-90150000I0J2990000D01*
G01*
X72664830Y-90150000D02*
G75*
G02*
X71120000Y-95700000I-1544830J-2560000D01*
G01*
X73620000Y-92710000D02*
G75*
G02*
X68620000Y-92710000I-2500000J0D01*
G01*
X68620000Y-92710000D02*
G75*
G02*
X73620000Y-92710000I2500000J0D01*
G01*
%TO.C,D12*%
X80285000Y-90150000D02*
X77195000Y-90150000D01*
X78740000Y-95700000D02*
G75*
G02*
X77195170Y-90150000I0J2990000D01*
G01*
X80284830Y-90150000D02*
G75*
G02*
X78740000Y-95700000I-1544830J-2560000D01*
G01*
X81240000Y-92710000D02*
G75*
G02*
X76240000Y-92710000I-2500000J0D01*
G01*
X76240000Y-92710000D02*
G75*
G02*
X81240000Y-92710000I2500000J0D01*
G01*
%TO.C,Y1*%
X83925000Y-155425000D02*
X83925000Y-149175000D01*
X88795000Y-149175000D02*
X88795000Y-155425000D01*
X83925000Y-149175000D02*
G75*
G02*
X88795000Y-149175000I2435000J0D01*
G01*
X88795000Y-155425000D02*
G75*
G02*
X83925000Y-155425000I-2435000J0D01*
G01*
%TO.C,D5*%
X65045000Y-67290000D02*
X61955000Y-67290000D01*
X63500000Y-72840000D02*
G75*
G02*
X61955170Y-67290000I0J2990000D01*
G01*
X65044830Y-67290000D02*
G75*
G02*
X63500000Y-72840000I-1544830J-2560000D01*
G01*
X66000000Y-69850000D02*
G75*
G02*
X61000000Y-69850000I-2500000J0D01*
G01*
X61000000Y-69850000D02*
G75*
G02*
X66000000Y-69850000I2500000J0D01*
G01*
%TO.C,D2*%
X65045000Y-90150000D02*
X61955000Y-90150000D01*
X63500000Y-95700000D02*
G75*
G02*
X61955170Y-90150000I0J2990000D01*
G01*
X65044830Y-90150000D02*
G75*
G02*
X63500000Y-95700000I-1544830J-2560000D01*
G01*
X66000000Y-92710000D02*
G75*
G02*
X61000000Y-92710000I-2500000J0D01*
G01*
X61000000Y-92710000D02*
G75*
G02*
X66000000Y-92710000I2500000J0D01*
G01*
%TO.C,R2*%
X72160000Y-111760000D02*
X72930000Y-111760000D01*
X80240000Y-111760000D02*
X79470000Y-111760000D01*
X79470000Y-113130000D02*
X72930000Y-113130000D01*
X72930000Y-110390000D01*
X79470000Y-110390000D01*
X79470000Y-113130000D01*
%TO.C,C3*%
X105640000Y-85310000D02*
X103459000Y-85310000D01*
X105640000Y-85350000D02*
X103462000Y-85350000D01*
X105640000Y-85390000D02*
X103466000Y-85390000D01*
X105640000Y-85430000D02*
X103470000Y-85430000D01*
X105640000Y-85470000D02*
X103475000Y-85470000D01*
X105640000Y-85510000D02*
X103480000Y-85510000D01*
X105640000Y-85550000D02*
X103485000Y-85550000D01*
X105640000Y-85590000D02*
X103492000Y-85590000D01*
X105640000Y-85630000D02*
X103498000Y-85630000D01*
X105640000Y-85670000D02*
X103506000Y-85670000D01*
X105640000Y-85710000D02*
X103513000Y-85710000D01*
X105640000Y-85750000D02*
X103521000Y-85750000D01*
X105640000Y-85790000D02*
X103530000Y-85790000D01*
X105640000Y-85830000D02*
X103540000Y-85830000D01*
X105640000Y-85870000D02*
X103549000Y-85870000D01*
X105640000Y-85910000D02*
X103560000Y-85910000D01*
X105640000Y-85950000D02*
X103571000Y-85950000D01*
X105640000Y-85990000D02*
X103582000Y-85990000D01*
X105640000Y-86030000D02*
X103594000Y-86030000D01*
X105640000Y-86070000D02*
X103607000Y-86070000D01*
X105640000Y-86110000D02*
X103620000Y-86110000D01*
X105640000Y-86150000D02*
X103633000Y-86150000D01*
X105640000Y-86190000D02*
X103648000Y-86190000D01*
X105640000Y-86230000D02*
X103663000Y-86230000D01*
X105640000Y-86270000D02*
X103678000Y-86270000D01*
X105640000Y-86310000D02*
X103694000Y-86310000D01*
X105640000Y-86350000D02*
X103711000Y-86350000D01*
X105640000Y-86390000D02*
X103728000Y-86390000D01*
X105640000Y-86430000D02*
X103746000Y-86430000D01*
X105640000Y-86470000D02*
X103765000Y-86470000D01*
X105640000Y-86510000D02*
X103784000Y-86510000D01*
X105640000Y-86550000D02*
X103804000Y-86550000D01*
X105640000Y-86590000D02*
X103825000Y-86590000D01*
X105640000Y-86630000D02*
X103846000Y-86630000D01*
X105640000Y-86670000D02*
X103868000Y-86670000D01*
X105640000Y-86710000D02*
X103891000Y-86710000D01*
X105640000Y-86750000D02*
X103915000Y-86750000D01*
X105640000Y-86790000D02*
X103939000Y-86790000D01*
X105640000Y-86830000D02*
X103964000Y-86830000D01*
X105640000Y-86870000D02*
X103990000Y-86870000D01*
X105640000Y-86910000D02*
X104017000Y-86910000D01*
X105640000Y-86950000D02*
X104044000Y-86950000D01*
X105640000Y-86990000D02*
X104073000Y-86990000D01*
X105640000Y-87030000D02*
X104103000Y-87030000D01*
X105640000Y-87070000D02*
X104133000Y-87070000D01*
X105640000Y-87110000D02*
X104164000Y-87110000D01*
X105640000Y-87150000D02*
X104197000Y-87150000D01*
X105640000Y-87190000D02*
X104230000Y-87190000D01*
X105640000Y-87230000D02*
X104265000Y-87230000D01*
X105640000Y-87270000D02*
X104301000Y-87270000D01*
X105640000Y-87310000D02*
X104338000Y-87310000D01*
X105640000Y-87350000D02*
X104376000Y-87350000D01*
X107082000Y-88310000D02*
X106278000Y-88310000D01*
X107313000Y-88270000D02*
X106047000Y-88270000D01*
X107481000Y-88230000D02*
X105879000Y-88230000D01*
X107619000Y-88190000D02*
X105741000Y-88190000D01*
X107738000Y-88150000D02*
X105622000Y-88150000D01*
X107845000Y-88110000D02*
X105515000Y-88110000D01*
X107941000Y-88070000D02*
X105419000Y-88070000D01*
X108030000Y-88030000D02*
X105330000Y-88030000D01*
X108112000Y-87990000D02*
X105248000Y-87990000D01*
X108189000Y-87950000D02*
X105171000Y-87950000D01*
X108261000Y-87910000D02*
X105099000Y-87910000D01*
X108329000Y-87870000D02*
X105031000Y-87870000D01*
X108394000Y-87830000D02*
X104966000Y-87830000D01*
X108455000Y-87790000D02*
X104905000Y-87790000D01*
X108514000Y-87750000D02*
X104846000Y-87750000D01*
X108519000Y-81569759D02*
X108519000Y-82199759D01*
X108570000Y-87710000D02*
X104790000Y-87710000D01*
X108623000Y-87670000D02*
X104737000Y-87670000D01*
X108675000Y-87630000D02*
X104685000Y-87630000D01*
X108724000Y-87590000D02*
X104636000Y-87590000D01*
X108771000Y-87550000D02*
X104589000Y-87550000D01*
X108817000Y-87510000D02*
X104543000Y-87510000D01*
X108834000Y-81884759D02*
X108204000Y-81884759D01*
X108861000Y-87470000D02*
X104499000Y-87470000D01*
X108903000Y-87430000D02*
X104457000Y-87430000D01*
X108944000Y-87390000D02*
X104416000Y-87390000D01*
X108984000Y-87350000D02*
X107720000Y-87350000D01*
X109022000Y-87310000D02*
X107720000Y-87310000D01*
X109059000Y-87270000D02*
X107720000Y-87270000D01*
X109095000Y-87230000D02*
X107720000Y-87230000D01*
X109130000Y-87190000D02*
X107720000Y-87190000D01*
X109163000Y-87150000D02*
X107720000Y-87150000D01*
X109196000Y-87110000D02*
X107720000Y-87110000D01*
X109227000Y-87070000D02*
X107720000Y-87070000D01*
X109257000Y-87030000D02*
X107720000Y-87030000D01*
X109287000Y-86990000D02*
X107720000Y-86990000D01*
X109316000Y-86950000D02*
X107720000Y-86950000D01*
X109343000Y-86910000D02*
X107720000Y-86910000D01*
X109370000Y-86870000D02*
X107720000Y-86870000D01*
X109396000Y-86830000D02*
X107720000Y-86830000D01*
X109421000Y-86790000D02*
X107720000Y-86790000D01*
X109445000Y-86750000D02*
X107720000Y-86750000D01*
X109469000Y-86710000D02*
X107720000Y-86710000D01*
X109492000Y-86670000D02*
X107720000Y-86670000D01*
X109514000Y-86630000D02*
X107720000Y-86630000D01*
X109535000Y-86590000D02*
X107720000Y-86590000D01*
X109556000Y-86550000D02*
X107720000Y-86550000D01*
X109576000Y-86510000D02*
X107720000Y-86510000D01*
X109595000Y-86470000D02*
X107720000Y-86470000D01*
X109614000Y-86430000D02*
X107720000Y-86430000D01*
X109632000Y-86390000D02*
X107720000Y-86390000D01*
X109649000Y-86350000D02*
X107720000Y-86350000D01*
X109666000Y-86310000D02*
X107720000Y-86310000D01*
X109682000Y-86270000D02*
X107720000Y-86270000D01*
X109697000Y-86230000D02*
X107720000Y-86230000D01*
X109712000Y-86190000D02*
X107720000Y-86190000D01*
X109727000Y-86150000D02*
X107720000Y-86150000D01*
X109740000Y-86110000D02*
X107720000Y-86110000D01*
X109753000Y-86070000D02*
X107720000Y-86070000D01*
X109766000Y-86030000D02*
X107720000Y-86030000D01*
X109778000Y-85990000D02*
X107720000Y-85990000D01*
X109789000Y-85950000D02*
X107720000Y-85950000D01*
X109800000Y-85910000D02*
X107720000Y-85910000D01*
X109811000Y-85870000D02*
X107720000Y-85870000D01*
X109820000Y-85830000D02*
X107720000Y-85830000D01*
X109830000Y-85790000D02*
X107720000Y-85790000D01*
X109839000Y-85750000D02*
X107720000Y-85750000D01*
X109847000Y-85710000D02*
X107720000Y-85710000D01*
X109854000Y-85670000D02*
X107720000Y-85670000D01*
X109862000Y-85630000D02*
X107720000Y-85630000D01*
X109868000Y-85590000D02*
X107720000Y-85590000D01*
X109875000Y-85550000D02*
X107720000Y-85550000D01*
X109880000Y-85510000D02*
X107720000Y-85510000D01*
X109885000Y-85470000D02*
X107720000Y-85470000D01*
X109890000Y-85430000D02*
X107720000Y-85430000D01*
X109894000Y-85390000D02*
X107720000Y-85390000D01*
X109898000Y-85350000D02*
X107720000Y-85350000D01*
X109901000Y-85310000D02*
X107720000Y-85310000D01*
X109904000Y-85270000D02*
X103456000Y-85270000D01*
X109906000Y-85230000D02*
X103454000Y-85230000D01*
X109908000Y-85190000D02*
X103452000Y-85190000D01*
X109909000Y-85150000D02*
X103451000Y-85150000D01*
X109910000Y-85070000D02*
X103450000Y-85070000D01*
X109910000Y-85110000D02*
X103450000Y-85110000D01*
X109950000Y-85070000D02*
G75*
G02*
X103410000Y-85070000I-3270000J0D01*
G01*
X103410000Y-85070000D02*
G75*
G02*
X109950000Y-85070000I3270000J0D01*
G01*
%TO.C,D6*%
X72665000Y-67290000D02*
X69575000Y-67290000D01*
X71120000Y-72840000D02*
G75*
G02*
X69575170Y-67290000I0J2990000D01*
G01*
X72664830Y-67290000D02*
G75*
G02*
X71120000Y-72840000I-1544830J-2560000D01*
G01*
X73620000Y-69850000D02*
G75*
G02*
X68620000Y-69850000I-2500000J0D01*
G01*
X68620000Y-69850000D02*
G75*
G02*
X73620000Y-69850000I2500000J0D01*
G01*
%TO.C,C4*%
X67540000Y-133570000D02*
X65359000Y-133570000D01*
X67540000Y-133610000D02*
X65362000Y-133610000D01*
X67540000Y-133650000D02*
X65366000Y-133650000D01*
X67540000Y-133690000D02*
X65370000Y-133690000D01*
X67540000Y-133730000D02*
X65375000Y-133730000D01*
X67540000Y-133770000D02*
X65380000Y-133770000D01*
X67540000Y-133810000D02*
X65385000Y-133810000D01*
X67540000Y-133850000D02*
X65392000Y-133850000D01*
X67540000Y-133890000D02*
X65398000Y-133890000D01*
X67540000Y-133930000D02*
X65406000Y-133930000D01*
X67540000Y-133970000D02*
X65413000Y-133970000D01*
X67540000Y-134010000D02*
X65421000Y-134010000D01*
X67540000Y-134050000D02*
X65430000Y-134050000D01*
X67540000Y-134090000D02*
X65440000Y-134090000D01*
X67540000Y-134130000D02*
X65449000Y-134130000D01*
X67540000Y-134170000D02*
X65460000Y-134170000D01*
X67540000Y-134210000D02*
X65471000Y-134210000D01*
X67540000Y-134250000D02*
X65482000Y-134250000D01*
X67540000Y-134290000D02*
X65494000Y-134290000D01*
X67540000Y-134330000D02*
X65507000Y-134330000D01*
X67540000Y-134370000D02*
X65520000Y-134370000D01*
X67540000Y-134410000D02*
X65533000Y-134410000D01*
X67540000Y-134450000D02*
X65548000Y-134450000D01*
X67540000Y-134490000D02*
X65563000Y-134490000D01*
X67540000Y-134530000D02*
X65578000Y-134530000D01*
X67540000Y-134570000D02*
X65594000Y-134570000D01*
X67540000Y-134610000D02*
X65611000Y-134610000D01*
X67540000Y-134650000D02*
X65628000Y-134650000D01*
X67540000Y-134690000D02*
X65646000Y-134690000D01*
X67540000Y-134730000D02*
X65665000Y-134730000D01*
X67540000Y-134770000D02*
X65684000Y-134770000D01*
X67540000Y-134810000D02*
X65704000Y-134810000D01*
X67540000Y-134850000D02*
X65725000Y-134850000D01*
X67540000Y-134890000D02*
X65746000Y-134890000D01*
X67540000Y-134930000D02*
X65768000Y-134930000D01*
X67540000Y-134970000D02*
X65791000Y-134970000D01*
X67540000Y-135010000D02*
X65815000Y-135010000D01*
X67540000Y-135050000D02*
X65839000Y-135050000D01*
X67540000Y-135090000D02*
X65864000Y-135090000D01*
X67540000Y-135130000D02*
X65890000Y-135130000D01*
X67540000Y-135170000D02*
X65917000Y-135170000D01*
X67540000Y-135210000D02*
X65944000Y-135210000D01*
X67540000Y-135250000D02*
X65973000Y-135250000D01*
X67540000Y-135290000D02*
X66003000Y-135290000D01*
X67540000Y-135330000D02*
X66033000Y-135330000D01*
X67540000Y-135370000D02*
X66064000Y-135370000D01*
X67540000Y-135410000D02*
X66097000Y-135410000D01*
X67540000Y-135450000D02*
X66130000Y-135450000D01*
X67540000Y-135490000D02*
X66165000Y-135490000D01*
X67540000Y-135530000D02*
X66201000Y-135530000D01*
X67540000Y-135570000D02*
X66238000Y-135570000D01*
X67540000Y-135610000D02*
X66276000Y-135610000D01*
X68982000Y-136570000D02*
X68178000Y-136570000D01*
X69213000Y-136530000D02*
X67947000Y-136530000D01*
X69381000Y-136490000D02*
X67779000Y-136490000D01*
X69519000Y-136450000D02*
X67641000Y-136450000D01*
X69638000Y-136410000D02*
X67522000Y-136410000D01*
X69745000Y-136370000D02*
X67415000Y-136370000D01*
X69841000Y-136330000D02*
X67319000Y-136330000D01*
X69930000Y-136290000D02*
X67230000Y-136290000D01*
X70012000Y-136250000D02*
X67148000Y-136250000D01*
X70089000Y-136210000D02*
X67071000Y-136210000D01*
X70161000Y-136170000D02*
X66999000Y-136170000D01*
X70229000Y-136130000D02*
X66931000Y-136130000D01*
X70294000Y-136090000D02*
X66866000Y-136090000D01*
X70355000Y-136050000D02*
X66805000Y-136050000D01*
X70414000Y-136010000D02*
X66746000Y-136010000D01*
X70419000Y-129829759D02*
X70419000Y-130459759D01*
X70470000Y-135970000D02*
X66690000Y-135970000D01*
X70523000Y-135930000D02*
X66637000Y-135930000D01*
X70575000Y-135890000D02*
X66585000Y-135890000D01*
X70624000Y-135850000D02*
X66536000Y-135850000D01*
X70671000Y-135810000D02*
X66489000Y-135810000D01*
X70717000Y-135770000D02*
X66443000Y-135770000D01*
X70734000Y-130144759D02*
X70104000Y-130144759D01*
X70761000Y-135730000D02*
X66399000Y-135730000D01*
X70803000Y-135690000D02*
X66357000Y-135690000D01*
X70844000Y-135650000D02*
X66316000Y-135650000D01*
X70884000Y-135610000D02*
X69620000Y-135610000D01*
X70922000Y-135570000D02*
X69620000Y-135570000D01*
X70959000Y-135530000D02*
X69620000Y-135530000D01*
X70995000Y-135490000D02*
X69620000Y-135490000D01*
X71030000Y-135450000D02*
X69620000Y-135450000D01*
X71063000Y-135410000D02*
X69620000Y-135410000D01*
X71096000Y-135370000D02*
X69620000Y-135370000D01*
X71127000Y-135330000D02*
X69620000Y-135330000D01*
X71157000Y-135290000D02*
X69620000Y-135290000D01*
X71187000Y-135250000D02*
X69620000Y-135250000D01*
X71216000Y-135210000D02*
X69620000Y-135210000D01*
X71243000Y-135170000D02*
X69620000Y-135170000D01*
X71270000Y-135130000D02*
X69620000Y-135130000D01*
X71296000Y-135090000D02*
X69620000Y-135090000D01*
X71321000Y-135050000D02*
X69620000Y-135050000D01*
X71345000Y-135010000D02*
X69620000Y-135010000D01*
X71369000Y-134970000D02*
X69620000Y-134970000D01*
X71392000Y-134930000D02*
X69620000Y-134930000D01*
X71414000Y-134890000D02*
X69620000Y-134890000D01*
X71435000Y-134850000D02*
X69620000Y-134850000D01*
X71456000Y-134810000D02*
X69620000Y-134810000D01*
X71476000Y-134770000D02*
X69620000Y-134770000D01*
X71495000Y-134730000D02*
X69620000Y-134730000D01*
X71514000Y-134690000D02*
X69620000Y-134690000D01*
X71532000Y-134650000D02*
X69620000Y-134650000D01*
X71549000Y-134610000D02*
X69620000Y-134610000D01*
X71566000Y-134570000D02*
X69620000Y-134570000D01*
X71582000Y-134530000D02*
X69620000Y-134530000D01*
X71597000Y-134490000D02*
X69620000Y-134490000D01*
X71612000Y-134450000D02*
X69620000Y-134450000D01*
X71627000Y-134410000D02*
X69620000Y-134410000D01*
X71640000Y-134370000D02*
X69620000Y-134370000D01*
X71653000Y-134330000D02*
X69620000Y-134330000D01*
X71666000Y-134290000D02*
X69620000Y-134290000D01*
X71678000Y-134250000D02*
X69620000Y-134250000D01*
X71689000Y-134210000D02*
X69620000Y-134210000D01*
X71700000Y-134170000D02*
X69620000Y-134170000D01*
X71711000Y-134130000D02*
X69620000Y-134130000D01*
X71720000Y-134090000D02*
X69620000Y-134090000D01*
X71730000Y-134050000D02*
X69620000Y-134050000D01*
X71739000Y-134010000D02*
X69620000Y-134010000D01*
X71747000Y-133970000D02*
X69620000Y-133970000D01*
X71754000Y-133930000D02*
X69620000Y-133930000D01*
X71762000Y-133890000D02*
X69620000Y-133890000D01*
X71768000Y-133850000D02*
X69620000Y-133850000D01*
X71775000Y-133810000D02*
X69620000Y-133810000D01*
X71780000Y-133770000D02*
X69620000Y-133770000D01*
X71785000Y-133730000D02*
X69620000Y-133730000D01*
X71790000Y-133690000D02*
X69620000Y-133690000D01*
X71794000Y-133650000D02*
X69620000Y-133650000D01*
X71798000Y-133610000D02*
X69620000Y-133610000D01*
X71801000Y-133570000D02*
X69620000Y-133570000D01*
X71804000Y-133530000D02*
X65356000Y-133530000D01*
X71806000Y-133490000D02*
X65354000Y-133490000D01*
X71808000Y-133450000D02*
X65352000Y-133450000D01*
X71809000Y-133410000D02*
X65351000Y-133410000D01*
X71810000Y-133330000D02*
X65350000Y-133330000D01*
X71810000Y-133370000D02*
X65350000Y-133370000D01*
X71850000Y-133330000D02*
G75*
G02*
X65310000Y-133330000I-3270000J0D01*
G01*
X65310000Y-133330000D02*
G75*
G02*
X71850000Y-133330000I3270000J0D01*
G01*
%TO.C,D11*%
X80285000Y-97770000D02*
X77195000Y-97770000D01*
X78740000Y-103320000D02*
G75*
G02*
X77195170Y-97770000I0J2990000D01*
G01*
X80284830Y-97770000D02*
G75*
G02*
X78740000Y-103320000I-1544830J-2560000D01*
G01*
X81240000Y-100330000D02*
G75*
G02*
X76240000Y-100330000I-2500000J0D01*
G01*
X76240000Y-100330000D02*
G75*
G02*
X81240000Y-100330000I2500000J0D01*
G01*
%TO.C,C1*%
X106680000Y-72370000D02*
X111840000Y-72370000D01*
X106680000Y-72410000D02*
X111840000Y-72410000D01*
X106681000Y-72330000D02*
X111839000Y-72330000D01*
X106683000Y-72290000D02*
X111837000Y-72290000D01*
X106685000Y-72250000D02*
X111835000Y-72250000D01*
X106688000Y-72210000D02*
X111832000Y-72210000D01*
X106691000Y-72170000D02*
X108220000Y-72170000D01*
X106695000Y-72130000D02*
X108220000Y-72130000D01*
X106700000Y-72090000D02*
X108220000Y-72090000D01*
X106705000Y-72050000D02*
X108220000Y-72050000D01*
X106711000Y-72010000D02*
X108220000Y-72010000D01*
X106717000Y-71970000D02*
X108220000Y-71970000D01*
X106724000Y-71930000D02*
X108220000Y-71930000D01*
X106732000Y-71890000D02*
X108220000Y-71890000D01*
X106741000Y-71850000D02*
X108220000Y-71850000D01*
X106750000Y-71810000D02*
X108220000Y-71810000D01*
X106759000Y-71770000D02*
X108220000Y-71770000D01*
X106770000Y-71730000D02*
X108220000Y-71730000D01*
X106781000Y-71690000D02*
X108220000Y-71690000D01*
X106793000Y-71650000D02*
X108220000Y-71650000D01*
X106805000Y-71610000D02*
X108220000Y-71610000D01*
X106818000Y-71570000D02*
X108220000Y-71570000D01*
X106832000Y-71530000D02*
X108220000Y-71530000D01*
X106847000Y-71490000D02*
X108220000Y-71490000D01*
X106862000Y-71450000D02*
X108220000Y-71450000D01*
X106878000Y-71410000D02*
X108220000Y-71410000D01*
X106895000Y-71370000D02*
X108220000Y-71370000D01*
X106913000Y-71330000D02*
X108220000Y-71330000D01*
X106931000Y-71290000D02*
X108220000Y-71290000D01*
X106951000Y-71250000D02*
X108220000Y-71250000D01*
X106971000Y-71210000D02*
X108220000Y-71210000D01*
X106992000Y-71170000D02*
X108220000Y-71170000D01*
X107014000Y-71130000D02*
X108220000Y-71130000D01*
X107037000Y-71090000D02*
X108220000Y-71090000D01*
X107061000Y-71050000D02*
X108220000Y-71050000D01*
X107085000Y-71010000D02*
X108220000Y-71010000D01*
X107111000Y-70970000D02*
X108220000Y-70970000D01*
X107138000Y-70930000D02*
X108220000Y-70930000D01*
X107166000Y-70890000D02*
X108220000Y-70890000D01*
X107195000Y-70850000D02*
X108220000Y-70850000D01*
X107225000Y-70810000D02*
X108220000Y-70810000D01*
X107257000Y-70770000D02*
X108220000Y-70770000D01*
X107290000Y-70730000D02*
X108220000Y-70730000D01*
X107324000Y-70690000D02*
X108220000Y-70690000D01*
X107359000Y-70650000D02*
X108220000Y-70650000D01*
X107396000Y-70610000D02*
X108220000Y-70610000D01*
X107435000Y-70570000D02*
X108220000Y-70570000D01*
X107475000Y-70530000D02*
X108220000Y-70530000D01*
X107517000Y-70490000D02*
X108220000Y-70490000D01*
X107535000Y-74964775D02*
X108035000Y-74964775D01*
X107561000Y-70450000D02*
X108220000Y-70450000D01*
X107608000Y-70410000D02*
X108220000Y-70410000D01*
X107656000Y-70370000D02*
X108220000Y-70370000D01*
X107707000Y-70330000D02*
X108220000Y-70330000D01*
X107761000Y-70290000D02*
X108220000Y-70290000D01*
X107785000Y-75214775D02*
X107785000Y-74714775D01*
X107817000Y-70250000D02*
X108220000Y-70250000D01*
X107877000Y-70210000D02*
X108220000Y-70210000D01*
X107941000Y-70170000D02*
X108220000Y-70170000D01*
X108009000Y-70130000D02*
X108220000Y-70130000D01*
X108083000Y-70090000D02*
X110437000Y-70090000D01*
X108162000Y-70050000D02*
X110358000Y-70050000D01*
X108249000Y-70010000D02*
X110271000Y-70010000D01*
X108346000Y-69970000D02*
X110174000Y-69970000D01*
X108455000Y-69930000D02*
X110065000Y-69930000D01*
X108583000Y-69890000D02*
X109937000Y-69890000D01*
X108743000Y-69850000D02*
X109777000Y-69850000D01*
X108977000Y-69810000D02*
X109543000Y-69810000D01*
X110300000Y-70130000D02*
X110511000Y-70130000D01*
X110300000Y-70170000D02*
X110579000Y-70170000D01*
X110300000Y-70210000D02*
X110643000Y-70210000D01*
X110300000Y-70250000D02*
X110703000Y-70250000D01*
X110300000Y-70290000D02*
X110759000Y-70290000D01*
X110300000Y-70330000D02*
X110813000Y-70330000D01*
X110300000Y-70370000D02*
X110864000Y-70370000D01*
X110300000Y-70410000D02*
X110912000Y-70410000D01*
X110300000Y-70450000D02*
X110959000Y-70450000D01*
X110300000Y-70490000D02*
X111003000Y-70490000D01*
X110300000Y-70530000D02*
X111045000Y-70530000D01*
X110300000Y-70570000D02*
X111085000Y-70570000D01*
X110300000Y-70610000D02*
X111124000Y-70610000D01*
X110300000Y-70650000D02*
X111161000Y-70650000D01*
X110300000Y-70690000D02*
X111196000Y-70690000D01*
X110300000Y-70730000D02*
X111230000Y-70730000D01*
X110300000Y-70770000D02*
X111263000Y-70770000D01*
X110300000Y-70810000D02*
X111295000Y-70810000D01*
X110300000Y-70850000D02*
X111325000Y-70850000D01*
X110300000Y-70890000D02*
X111354000Y-70890000D01*
X110300000Y-70930000D02*
X111382000Y-70930000D01*
X110300000Y-70970000D02*
X111409000Y-70970000D01*
X110300000Y-71010000D02*
X111435000Y-71010000D01*
X110300000Y-71050000D02*
X111459000Y-71050000D01*
X110300000Y-71090000D02*
X111483000Y-71090000D01*
X110300000Y-71130000D02*
X111506000Y-71130000D01*
X110300000Y-71170000D02*
X111528000Y-71170000D01*
X110300000Y-71210000D02*
X111549000Y-71210000D01*
X110300000Y-71250000D02*
X111569000Y-71250000D01*
X110300000Y-71290000D02*
X111589000Y-71290000D01*
X110300000Y-71330000D02*
X111607000Y-71330000D01*
X110300000Y-71370000D02*
X111625000Y-71370000D01*
X110300000Y-71410000D02*
X111642000Y-71410000D01*
X110300000Y-71450000D02*
X111658000Y-71450000D01*
X110300000Y-71490000D02*
X111673000Y-71490000D01*
X110300000Y-71530000D02*
X111688000Y-71530000D01*
X110300000Y-71570000D02*
X111702000Y-71570000D01*
X110300000Y-71610000D02*
X111715000Y-71610000D01*
X110300000Y-71650000D02*
X111727000Y-71650000D01*
X110300000Y-71690000D02*
X111739000Y-71690000D01*
X110300000Y-71730000D02*
X111750000Y-71730000D01*
X110300000Y-71770000D02*
X111761000Y-71770000D01*
X110300000Y-71810000D02*
X111770000Y-71810000D01*
X110300000Y-71850000D02*
X111779000Y-71850000D01*
X110300000Y-71890000D02*
X111788000Y-71890000D01*
X110300000Y-71930000D02*
X111796000Y-71930000D01*
X110300000Y-71970000D02*
X111803000Y-71970000D01*
X110300000Y-72010000D02*
X111809000Y-72010000D01*
X110300000Y-72050000D02*
X111815000Y-72050000D01*
X110300000Y-72090000D02*
X111820000Y-72090000D01*
X110300000Y-72130000D02*
X111825000Y-72130000D01*
X110300000Y-72170000D02*
X111829000Y-72170000D01*
X111880000Y-72410000D02*
G75*
G02*
X106640000Y-72410000I-2620000J0D01*
G01*
X106640000Y-72410000D02*
G75*
G02*
X111880000Y-72410000I2620000J0D01*
G01*
%TO.C,D15*%
X80285000Y-67290000D02*
X77195000Y-67290000D01*
X78740000Y-72840000D02*
G75*
G02*
X77195170Y-67290000I0J2990000D01*
G01*
X80284830Y-67290000D02*
G75*
G02*
X78740000Y-72840000I-1544830J-2560000D01*
G01*
X81240000Y-69850000D02*
G75*
G02*
X76240000Y-69850000I-2500000J0D01*
G01*
X76240000Y-69850000D02*
G75*
G02*
X81240000Y-69850000I2500000J0D01*
G01*
%TO.C,R1*%
X62000000Y-106680000D02*
X62770000Y-106680000D01*
X70080000Y-106680000D02*
X69310000Y-106680000D01*
X69310000Y-108050000D02*
X62770000Y-108050000D01*
X62770000Y-105310000D01*
X69310000Y-105310000D01*
X69310000Y-108050000D01*
%TD*%
M02*
