M48
; DRILL file {KiCad 9.0.7} date 2026-03-03T09:09:43+0800
; FORMAT={-:-/ absolute / metric / decimal}
; #@! TF.CreationDate,2026-03-03T09:09:43+08:00
; #@! TF.GenerationSoftware,Kicad,Pcbnew,9.0.7
; #@! TF.FileFunction,Plated,1,2,PTH
FMAT,2
METRIC
; #@! TA.AperFunction,Plated,PTH,ComponentDrill
T1C0.800
; #@! TA.AperFunction,Plated,PTH,ComponentDrill
T2C0.900
; #@! TA.AperFunction,Plated,PTH,ComponentDrill
T3C1.100
%
G90
G05
T1
X60.96Y-106.68
X68.58Y-132.08
X68.58Y-134.58
X71.12Y-106.68
X71.12Y-111.76
X76.2Y-147.32
X76.2Y-157.48
X78.7Y-147.32
X78.7Y-157.48
X78.74Y-116.84
X81.28Y-111.76
X86.36Y-149.86
X86.36Y-154.74
X88.9Y-116.84
X93.98Y-111.76
X93.98Y-114.3
X93.98Y-116.84
X93.98Y-119.38
X93.98Y-121.92
X93.98Y-124.46
X93.98Y-127.0
X93.98Y-129.54
X93.98Y-132.08
X93.98Y-134.62
X93.98Y-137.16
X93.98Y-139.7
X93.98Y-142.24
X93.98Y-144.78
X93.98Y-147.32
X93.98Y-149.86
X93.98Y-152.4
X93.98Y-154.94
X93.98Y-157.48
X93.98Y-160.02
X106.68Y-83.82
X106.68Y-86.32
X109.26Y-71.16
X109.26Y-73.66
X119.38Y-81.28
X119.38Y-91.44
X119.38Y-111.76
X119.38Y-114.3
X119.38Y-116.84
X119.38Y-119.38
X119.38Y-121.92
X119.38Y-124.46
X119.38Y-127.0
X119.38Y-129.54
X119.38Y-132.08
X119.38Y-134.62
X119.38Y-137.16
X119.38Y-139.7
X119.38Y-142.24
X119.38Y-144.78
X119.38Y-147.32
X119.38Y-149.86
X119.38Y-152.4
X119.38Y-154.94
X119.38Y-157.48
X119.38Y-160.02
T2
X63.5Y-68.58
X63.5Y-71.12
X63.5Y-76.2
X63.5Y-78.74
X63.5Y-83.82
X63.5Y-86.36
X63.5Y-91.44
X63.5Y-93.98
X63.5Y-99.06
X63.5Y-101.6
X71.12Y-68.58
X71.12Y-71.12
X71.12Y-76.2
X71.12Y-78.74
X71.12Y-83.82
X71.12Y-86.36
X71.12Y-91.44
X71.12Y-93.98
X71.12Y-99.06
X71.12Y-101.6
X78.74Y-68.58
X78.74Y-71.12
X78.74Y-76.2
X78.74Y-78.74
X78.74Y-83.82
X78.74Y-86.36
X78.74Y-91.44
X78.74Y-93.98
X78.74Y-99.06
X78.74Y-101.6
T3
X56.46Y-124.46
X56.46Y-130.96
X60.96Y-124.46
X60.96Y-130.96
M30
